<svg width="89" height="89" viewBox="0 0 89 89" fill="none" xmlns="http://www.w3.org/2000/svg">
<g filter="url(#filter0_d_231_2725)">
<circle cx="40.5" cy="40.5" r="40.5" fill="#F3F3F3"/>
</g>
<g clip-path="url(#clip0_231_2725)">
<path d="M65.9762 41.4675C65.9762 39.4191 65.8061 37.9242 65.4379 36.374H41.498V45.6198H55.5502C55.267 47.9175 53.7371 51.3778 50.3373 53.703L50.2896 54.0126L57.859 59.7422L58.3834 59.7933C63.1996 55.4471 65.9762 49.0525 65.9762 41.4675Z" fill="#4285F4"/>
<path d="M41.498 65.8284C48.3824 65.8284 54.1619 63.6137 58.3834 59.7937L50.3373 53.7034C48.1842 55.1706 45.2943 56.1949 41.498 56.1949C34.7553 56.1949 29.0324 51.8489 26.9924 45.8418L26.6934 45.8666L18.8227 51.8183L18.7197 52.0979C22.9127 60.2365 31.5254 65.8284 41.498 65.8284Z" fill="#34A853"/>
<path d="M26.9924 45.8418C26.4541 44.2916 26.1426 42.6306 26.1426 40.9143C26.1426 39.1979 26.4541 37.537 26.9641 35.9869L26.9498 35.6567L18.9805 29.6094L18.7197 29.7306C16.9916 33.1078 16 36.9004 16 40.9143C16 44.9283 16.9916 48.7206 18.7197 52.0979L26.9924 45.8418Z" fill="#FBBC05"/>
<path d="M41.498 25.6334C46.2859 25.6334 49.5156 27.6542 51.3572 29.3429L58.5533 22.4777C54.1338 18.4637 48.3824 16 41.498 16C31.5254 16 22.9127 21.5918 18.7197 29.7303L26.9641 35.9866C29.0324 29.9796 34.7553 25.6334 41.498 25.6334Z" fill="#EB4335"/>
</g>
<defs>
<filter id="filter0_d_231_2725" x="0" y="0" width="89" height="89" filterUnits="userSpaceOnUse" color-interpolation-filters="sRGB">
<feFlood flood-opacity="0" result="BackgroundImageFix"/>
<feColorMatrix in="SourceAlpha" type="matrix" values="0 0 0 0 0 0 0 0 0 0 0 0 0 0 0 0 0 0 127 0" result="hardAlpha"/>
<feOffset dx="4" dy="4"/>
<feGaussianBlur stdDeviation="2"/>
<feComposite in2="hardAlpha" operator="out"/>
<feColorMatrix type="matrix" values="0 0 0 0 0 0 0 0 0 0 0 0 0 0 0 0 0 0 0.1 0"/>
<feBlend mode="normal" in2="BackgroundImageFix" result="effect1_dropShadow_231_2725"/>
<feBlend mode="normal" in="SourceGraphic" in2="effect1_dropShadow_231_2725" result="shape"/>
</filter>
<clipPath id="clip0_231_2725">
<rect width="50" height="50" fill="white" transform="translate(16 16)"/>
</clipPath>
</defs>
</svg>
