<svg width="31" height="31" viewBox="0 0 31 31" fill="none" xmlns="http://www.w3.org/2000/svg">
<path d="M6.2536 26.2557C5.5661 26.255 4.97757 26.0099 4.48801 25.5203C3.99929 25.0299 3.75524 24.4409 3.75586 23.7534L3.77167 6.25342C3.77229 5.56592 4.0174 4.97739 4.50701 4.48783C4.99745 3.99911 5.58643 3.75506 6.27392 3.75568L23.7739 3.77149C24.4614 3.77211 25.0499 4.01722 25.5395 4.50683C26.0282 4.99727 26.2723 5.58625 26.2717 6.27375L26.2558 23.7737C26.2552 24.4612 26.0101 25.0498 25.5205 25.5393C25.0301 26.028 24.4411 26.2721 23.7536 26.2715L6.2536 26.2557ZM6.25586 23.7557L23.7558 23.7715L23.7717 6.27149L6.27167 6.25568L6.25586 23.7557Z" fill="black"/>
</svg>
