<svg width="535" height="69" viewBox="0 0 535 69" fill="none" xmlns="http://www.w3.org/2000/svg">
<path d="M30 1H505C521.016 1 534 13.9837 534 30V39C534 55.0163 521.016 68 505 68H30C13.9837 68 1 55.0163 1 39V30C1 13.9837 13.9837 1 30 1Z" fill="#FF6E05" stroke="#FF8A00" stroke-width="2"/>
<path d="M233.96 42.14C233.04 42.14 232.213 41.98 231.48 41.66C230.76 41.3267 230.193 40.8733 229.78 40.3C229.367 39.7133 229.153 39.04 229.14 38.28H231.08C231.147 38.9333 231.413 39.4867 231.88 39.94C232.36 40.38 233.053 40.6 233.96 40.6C234.827 40.6 235.507 40.3867 236 39.96C236.507 39.52 236.76 38.96 236.76 38.28C236.76 37.7467 236.613 37.3133 236.32 36.98C236.027 36.6467 235.66 36.3933 235.22 36.22C234.78 36.0467 234.187 35.86 233.44 35.66C232.52 35.42 231.78 35.18 231.22 34.94C230.673 34.7 230.2 34.3267 229.8 33.82C229.413 33.3 229.22 32.6067 229.22 31.74C229.22 30.98 229.413 30.3067 229.8 29.72C230.187 29.1333 230.727 28.68 231.42 28.36C232.127 28.04 232.933 27.88 233.84 27.88C235.147 27.88 236.213 28.2067 237.04 28.86C237.88 29.5133 238.353 30.38 238.46 31.46H236.46C236.393 30.9267 236.113 30.46 235.62 30.06C235.127 29.6467 234.473 29.44 233.66 29.44C232.9 29.44 232.28 29.64 231.8 30.04C231.32 30.4267 231.08 30.9733 231.08 31.68C231.08 32.1867 231.22 32.6 231.5 32.92C231.793 33.24 232.147 33.4867 232.56 33.66C232.987 33.82 233.58 34.0067 234.34 34.22C235.26 34.4733 236 34.7267 236.56 34.98C237.12 35.22 237.6 35.6 238 36.12C238.4 36.6267 238.6 37.32 238.6 38.2C238.6 38.88 238.42 39.52 238.06 40.12C237.7 40.72 237.167 41.2067 236.46 41.58C235.753 41.9533 234.92 42.14 233.96 42.14ZM250.998 31.04V42H249.178V40.38C248.832 40.94 248.345 41.38 247.718 41.7C247.105 42.0067 246.425 42.16 245.678 42.16C244.825 42.16 244.058 41.9867 243.378 41.64C242.698 41.28 242.158 40.7467 241.758 40.04C241.372 39.3333 241.178 38.4733 241.178 37.46V31.04H242.978V37.22C242.978 38.3 243.252 39.1333 243.798 39.72C244.345 40.2933 245.092 40.58 246.038 40.58C247.012 40.58 247.778 40.28 248.338 39.68C248.898 39.08 249.178 38.2067 249.178 37.06V31.04H250.998ZM255.891 33.08C256.265 32.4267 256.811 31.8933 257.531 31.48C258.251 31.0667 259.071 30.86 259.991 30.86C260.978 30.86 261.865 31.0933 262.651 31.56C263.438 32.0267 264.058 32.6867 264.511 33.54C264.965 34.38 265.191 35.36 265.191 36.48C265.191 37.5867 264.965 38.5733 264.511 39.44C264.058 40.3067 263.431 40.98 262.631 41.46C261.845 41.94 260.965 42.18 259.991 42.18C259.045 42.18 258.211 41.9733 257.491 41.56C256.785 41.1467 256.251 40.62 255.891 39.98V42H254.071V27.2H255.891V33.08ZM263.331 36.48C263.331 35.6533 263.165 34.9333 262.831 34.32C262.498 33.7067 262.045 33.24 261.471 32.92C260.911 32.6 260.291 32.44 259.611 32.44C258.945 32.44 258.325 32.6067 257.751 32.94C257.191 33.26 256.738 33.7333 256.391 34.36C256.058 34.9733 255.891 35.6867 255.891 36.5C255.891 37.3267 256.058 38.0533 256.391 38.68C256.738 39.2933 257.191 39.7667 257.751 40.1C258.325 40.42 258.945 40.58 259.611 40.58C260.291 40.58 260.911 40.42 261.471 40.1C262.045 39.7667 262.498 39.2933 262.831 38.68C263.165 38.0533 263.331 37.32 263.331 36.48ZM280.767 30.84C281.62 30.84 282.38 31.02 283.047 31.38C283.714 31.7267 284.24 32.2533 284.627 32.96C285.014 33.6667 285.207 34.5267 285.207 35.54V42H283.407V35.8C283.407 34.7067 283.134 33.8733 282.587 33.3C282.054 32.7133 281.327 32.42 280.407 32.42C279.46 32.42 278.707 32.7267 278.147 33.34C277.587 33.94 277.307 34.8133 277.307 35.96V42H275.507V35.8C275.507 34.7067 275.234 33.8733 274.687 33.3C274.154 32.7133 273.427 32.42 272.507 32.42C271.56 32.42 270.807 32.7267 270.247 33.34C269.687 33.94 269.407 34.8133 269.407 35.96V42H267.587V31.04H269.407V32.62C269.767 32.0467 270.247 31.6067 270.847 31.3C271.46 30.9933 272.134 30.84 272.867 30.84C273.787 30.84 274.6 31.0467 275.307 31.46C276.014 31.8733 276.54 32.48 276.887 33.28C277.194 32.5067 277.7 31.9067 278.407 31.48C279.114 31.0533 279.9 30.84 280.767 30.84ZM289.132 29.26C288.786 29.26 288.492 29.14 288.252 28.9C288.012 28.66 287.892 28.3667 287.892 28.02C287.892 27.6733 288.012 27.38 288.252 27.14C288.492 26.9 288.786 26.78 289.132 26.78C289.466 26.78 289.746 26.9 289.972 27.14C290.212 27.38 290.332 27.6733 290.332 28.02C290.332 28.3667 290.212 28.66 289.972 28.9C289.746 29.14 289.466 29.26 289.132 29.26ZM290.012 31.04V42H288.192V31.04H290.012ZM295.334 32.54V39C295.334 39.5333 295.448 39.9133 295.674 40.14C295.901 40.3533 296.294 40.46 296.854 40.46H298.194V42H296.554C295.541 42 294.781 41.7667 294.274 41.3C293.768 40.8333 293.514 40.0667 293.514 39V32.54H292.094V31.04H293.514V28.28H295.334V31.04H298.194V32.54H295.334Z" fill="white"/>
</svg>
