<svg width="40" height="40" viewBox="0 0 40 40" fill="none" xmlns="http://www.w3.org/2000/svg">
<path d="M40 20C40 23.9556 38.827 27.8224 36.6294 31.1114C34.4318 34.4004 31.3082 36.9638 27.6537 38.4776C23.9991 39.9913 19.9778 40.3874 16.0982 39.6157C12.2186 38.844 8.65491 36.9392 5.85786 34.1421C3.06081 31.3451 1.156 27.7814 0.384294 23.9018C-0.38741 20.0222 0.00865672 16.0009 1.52241 12.3463C3.03616 8.69181 5.59961 5.56824 8.8886 3.37061C12.1776 1.17298 16.0444 -4.71704e-08 20 0V3.99968C16.8354 3.99968 13.7419 4.93808 11.1107 6.69622C8.47946 8.45436 6.42866 10.9533 5.21763 13.8769C4.00661 16.8006 3.68975 20.0177 4.30712 23.1215C4.9245 26.2253 6.44838 29.0763 8.68606 31.3139C10.9237 33.5516 13.7747 35.0755 16.8785 35.6929C19.9823 36.3103 23.1994 35.9934 26.1231 34.7824C29.0467 33.5713 31.5456 31.5205 33.3038 28.8893C35.0619 26.2581 36.0003 23.1646 36.0003 20H40Z" fill="#FAFAFA"/>
</svg>
