<svg width="68" height="31" viewBox="0 0 68 31" fill="none" xmlns="http://www.w3.org/2000/svg">
<g clip-path="url(#clip0_1_2135)">
<path d="M33.3432 5.63645C32.7907 13.5259 32.3512 20.9214 33.3432 28.7975C33.3432 28.9851 33.4133 29.1651 33.5381 29.2977C33.6629 29.4304 33.8322 29.505 34.0087 29.505C34.1852 29.505 34.3545 29.4304 34.4793 29.2977C34.6041 29.1651 34.6742 28.9851 34.6742 28.7975C35.7415 20.8947 35.3523 13.646 34.6742 5.63645C34.6742 5.44881 34.6041 5.26885 34.4793 5.13617C34.3545 5.00348 34.1852 4.92894 34.0087 4.92894C33.8322 4.92894 33.6629 5.00348 33.5381 5.13617C33.4133 5.26885 33.3432 5.44881 33.3432 5.63645ZM29.1492 8.39975C28.4083 15.1896 28.4083 22.0477 29.1492 28.8375C29.1492 29.0322 29.222 29.219 29.3515 29.3567C29.481 29.4944 29.6567 29.5717 29.8398 29.5717C30.023 29.5717 30.1987 29.4944 30.3282 29.3567C30.4577 29.219 30.5304 29.0322 30.5304 28.8375C31.3529 22.053 31.3529 15.1843 30.5304 8.39975C30.4997 8.229 30.4139 8.07498 30.2878 7.96421C30.1618 7.85344 30.0034 7.79284 29.8398 7.79284C29.6763 7.79284 29.5179 7.85344 29.3918 7.96421C29.2658 8.07498 29.18 8.229 29.1492 8.39975ZM25.0306 7.71894C24.2395 14.7289 24.2395 21.8142 25.0306 28.8242C25.0306 29.0118 25.1007 29.1918 25.2255 29.3244C25.3503 29.4571 25.5196 29.5317 25.6961 29.5317C25.8726 29.5317 26.0419 29.4571 26.1667 29.3244C26.2915 29.1918 26.3616 29.0118 26.3616 28.8242C27.184 21.8163 27.184 14.7268 26.3616 7.71894C26.3315 7.55482 26.2486 7.40693 26.1272 7.30062C26.0058 7.1943 25.8534 7.13616 25.6961 7.13616C25.5388 7.13616 25.3864 7.1943 25.265 7.30062C25.1436 7.40693 25.0607 7.55482 25.0306 7.71894ZM20.8491 9.77473C20.0894 16.1078 20.0894 22.5178 20.8491 28.8509C20.8716 29.0269 20.9533 29.1882 21.0792 29.3051C21.205 29.4219 21.3664 29.4863 21.5335 29.4863C21.7006 29.4863 21.862 29.4219 21.9878 29.3051C22.1136 29.1882 22.1954 29.0269 22.2178 28.8509C23.0402 22.5222 23.0402 16.1034 22.2178 9.77473C22.1954 9.59873 22.1136 9.43736 21.9878 9.32052C21.862 9.20368 21.7006 9.1393 21.5335 9.1393C21.3664 9.1393 21.205 9.20368 21.0792 9.32052C20.9533 9.43736 20.8716 9.59873 20.8491 9.77473ZM16.6803 14.5137C15.6883 19.4263 16.1529 23.9383 16.6803 28.8776C16.7094 29.0317 16.7879 29.1705 16.9024 29.2701C17.0168 29.3698 17.1602 29.4242 17.3081 29.4242C17.4561 29.4242 17.5994 29.3698 17.7139 29.2701C17.8283 29.1705 17.9068 29.0317 17.936 28.8776C18.5512 23.8582 19.041 19.5331 17.936 14.5137C17.8809 14.3859 17.7924 14.2776 17.6811 14.2017C17.5698 14.1257 17.4404 14.0854 17.3081 14.0854C17.1759 14.0854 17.0464 14.1257 16.9351 14.2017C16.8238 14.2776 16.7354 14.3859 16.6803 14.5137ZM12.4863 13.7929C11.7517 18.5758 11.7517 23.4538 12.4863 28.2368C12.4863 28.9977 13.742 28.9843 13.8424 28.2368C14.6659 23.4619 14.6659 18.5677 13.8424 13.7929C13.7945 13.6421 13.7033 13.5111 13.5817 13.4183C13.46 13.3255 13.3141 13.2756 13.1644 13.2756C13.0147 13.2756 12.8687 13.3255 12.7471 13.4183C12.6254 13.5111 12.5342 13.6421 12.4863 13.7929ZM8.29233 16.2224C7.57069 19.3532 7.57069 22.623 8.29233 25.7538C8.3313 25.8989 8.41366 26.0265 8.52695 26.1173C8.64023 26.2082 8.77827 26.2573 8.92017 26.2573C9.06207 26.2573 9.2001 26.2082 9.31339 26.1173C9.42667 26.0265 9.50903 25.8989 9.54801 25.7538C10.4082 22.6425 10.4082 19.3338 9.54801 16.2224C9.48636 16.1027 9.39554 16.0028 9.28507 15.9332C9.17461 15.8636 9.04857 15.8269 8.92017 15.8269C8.79176 15.8269 8.66572 15.8636 8.55526 15.9332C8.4448 16.0028 8.35398 16.1027 8.29233 16.2224ZM37.2358 20.7078L43.8532 14.18V3.14014C41.4522 3.33709 39.1552 4.26386 37.2358 5.80999V20.7078ZM46.0381 17.2236V27.2756C48.6503 27.0581 51.1362 25.9907 53.1578 24.2187L46.0381 17.2236ZM57.2639 15.2079C57.2639 8.88033 52.3165 3.68746 46.0381 3.19353V14.18L54.6521 22.6434C56.3266 20.5739 57.2525 17.9377 57.2639 15.2079Z" fill="#FF8A00"/>
<path d="M59.7879 12.0305H59.0847C59.3262 13.0519 59.4485 14.1011 59.4488 15.1543C59.4411 17.8658 58.6667 20.5123 57.2263 22.75C55.1402 25.9342 52.0015 28.165 48.4365 28.9975C47.4194 29.2511 45.4731 29.3713 44.4435 29.5181H49.9057C51.4125 29.5181 53.0449 29.4247 54.6145 29.4247H59.4614C61.6279 29.4633 63.7249 28.6119 65.3155 27.0477C66.9061 25.4835 67.8678 23.3272 68 21.028C68.0354 19.8587 67.8491 18.6939 67.4521 17.6028C67.0551 16.5117 66.4556 15.5168 65.6893 14.6772C64.923 13.8376 64.0056 13.1706 62.9917 12.7159C61.9779 12.2612 60.8883 12.0281 59.7879 12.0305ZM37.2358 24.7791C39.2396 26.1217 41.5007 26.9701 43.8533 27.2621V17.2234L37.2358 23.7512V24.7791Z" fill="#FF8A00"/>
</g>
<defs>
<clipPath id="clip0_1_2135">
<rect width="68" height="31" fill="white"/>
</clipPath>
</defs>
</svg>
