<svg width="94" height="43" viewBox="0 0 94 43" fill="none" xmlns="http://www.w3.org/2000/svg">
<g clip-path="url(#clip0_1_2240)">
<path d="M46.092 7.8181C45.3283 18.7615 44.7207 29.0198 46.092 39.9447C46.092 40.2049 46.1889 40.4546 46.3615 40.6386C46.534 40.8226 46.768 40.926 47.012 40.926C47.256 40.926 47.49 40.8226 47.6625 40.6386C47.835 40.4546 47.9319 40.2049 47.9319 39.9447C49.4074 28.9827 48.8693 18.9281 47.9319 7.8181C47.9319 7.55782 47.835 7.3082 47.6625 7.12415C47.49 6.94011 47.256 6.83671 47.012 6.83671C46.768 6.83671 46.534 6.94011 46.3615 7.12415C46.1889 7.3082 46.092 7.55782 46.092 7.8181ZM40.2944 11.6511C39.2703 21.0692 39.2703 30.5821 40.2944 40.0002C40.2944 40.2703 40.395 40.5293 40.5741 40.7203C40.7531 40.9113 40.9959 41.0186 41.2491 41.0186C41.5023 41.0186 41.7452 40.9113 41.9242 40.7203C42.1032 40.5293 42.2038 40.2703 42.2038 40.0002C43.3407 30.5894 43.3407 21.0619 42.2038 11.6511C42.1613 11.4142 42.0427 11.2006 41.8685 11.0469C41.6942 10.8933 41.4752 10.8092 41.2491 10.8092C41.0231 10.8092 40.8041 10.8933 40.6298 11.0469C40.4556 11.2006 40.337 11.4142 40.2944 11.6511ZM34.601 10.7067C33.5075 20.4302 33.5075 30.2582 34.601 39.9817C34.601 40.242 34.698 40.4916 34.8705 40.6756C35.043 40.8597 35.277 40.9631 35.521 40.9631C35.765 40.9631 35.999 40.8597 36.1715 40.6756C36.3441 40.4916 36.441 40.242 36.441 39.9817C37.5779 30.261 37.5779 20.4274 36.441 10.7067C36.3993 10.4791 36.2848 10.2739 36.117 10.1265C35.9491 9.97899 35.7384 9.89835 35.521 9.89835C35.3036 9.89835 35.0929 9.97899 34.9251 10.1265C34.7572 10.2739 34.6427 10.4791 34.601 10.7067ZM28.8208 13.5583C27.7707 22.3429 27.7707 31.2342 28.8208 40.0187C28.8519 40.2629 28.9649 40.4867 29.1388 40.6488C29.3128 40.8108 29.5359 40.9001 29.7668 40.9001C29.9978 40.9001 30.2209 40.8108 30.3949 40.6488C30.5688 40.4867 30.6818 40.2629 30.7129 40.0187C31.8497 31.2403 31.8497 22.3367 30.7129 13.5583C30.6818 13.3142 30.5688 13.0903 30.3949 12.9283C30.2209 12.7662 29.9978 12.6769 29.7668 12.6769C29.5359 12.6769 29.3128 12.7662 29.1388 12.9283C28.9649 13.0903 28.8519 13.3142 28.8208 13.5583ZM23.058 20.1317C21.6867 26.9459 22.329 33.2046 23.058 40.0558C23.0983 40.2696 23.2068 40.462 23.365 40.6003C23.5232 40.7385 23.7214 40.814 23.9259 40.814C24.1304 40.814 24.3286 40.7385 24.4868 40.6003C24.645 40.462 24.7535 40.2696 24.7938 40.0558C25.6443 33.0935 26.3213 27.094 24.7938 20.1317C24.7176 19.9545 24.5954 19.8042 24.4415 19.6989C24.2877 19.5936 24.1087 19.5376 23.9259 19.5376C23.7431 19.5376 23.5641 19.5936 23.4103 19.6989C23.2564 19.8042 23.1342 19.9545 23.058 20.1317ZM17.2604 19.1318C16.2449 25.7663 16.2449 32.5325 17.2604 39.167C17.2604 40.2224 18.9962 40.2039 19.1351 39.167C20.2734 32.5438 20.2734 25.755 19.1351 19.1318C19.0688 18.9227 18.9428 18.7409 18.7746 18.6122C18.6065 18.4835 18.4047 18.4143 18.1978 18.4143C17.9908 18.4143 17.7891 18.4835 17.6209 18.6122C17.4528 18.7409 17.3267 18.9227 17.2604 19.1318ZM11.4629 22.5019C10.4653 26.8446 10.4653 31.3801 11.4629 35.7228C11.5168 35.924 11.6306 36.101 11.7872 36.2271C11.9438 36.3531 12.1346 36.4212 12.3308 36.4212C12.5269 36.4212 12.7178 36.3531 12.8744 36.2271C13.031 36.101 13.1448 35.924 13.1987 35.7228C14.3878 31.4071 14.3878 26.8176 13.1987 22.5019C13.1135 22.3358 12.9879 22.1972 12.8352 22.1007C12.6825 22.0041 12.5083 21.9532 12.3308 21.9532C12.1533 21.9532 11.9791 22.0041 11.8264 22.1007C11.6737 22.1972 11.5481 22.3358 11.4629 22.5019ZM51.473 28.7235L60.6206 19.6688V4.35547C57.3016 4.62866 54.1262 5.91419 51.473 8.05882V28.7235ZM63.6409 23.8906V37.8337C67.2519 37.532 70.6882 36.0515 73.4829 33.5934L63.6409 23.8906ZM79.1589 21.0946C79.1589 12.3177 72.3199 5.11466 63.6409 4.42954V19.6688L75.5484 31.4084C77.8631 28.5377 79.1432 24.8811 79.1589 21.0946Z" fill="white"/>
<path d="M82.6479 16.6875H81.6759C82.0098 18.1043 82.1788 19.5596 82.1792 21.0204C82.1685 24.7816 81.0981 28.4525 79.1069 31.5565C76.2232 35.9732 71.8844 39.0676 66.9563 40.2223C65.5503 40.5741 62.8598 40.7408 61.4365 40.9445H68.9872C71.0702 40.9445 73.3267 40.8148 75.4964 40.8148H82.1966C85.1914 40.8685 88.0902 39.6875 90.289 37.5178C92.4878 35.3481 93.8171 32.3571 94 29.1678C94.0489 27.546 93.7913 25.9302 93.2426 24.4168C92.6938 22.9034 91.8651 21.5233 90.8058 20.3587C89.7465 19.1942 88.4783 18.269 87.0768 17.6382C85.6752 17.0075 84.169 16.6842 82.6479 16.6875ZM51.473 34.371C54.2429 36.2333 57.3686 37.4102 60.6207 37.8151V23.8905L51.473 32.9452V34.371Z" fill="white"/>
</g>
<defs>
<clipPath id="clip0_1_2240">
<rect width="94" height="43" fill="white"/>
</clipPath>
</defs>
</svg>
