<svg width="15" height="26" viewBox="0 0 15 26" fill="none" xmlns="http://www.w3.org/2000/svg">
<mask id="path-1-outside-1_22_1086" maskUnits="userSpaceOnUse" x="0" y="0.475586" width="15" height="25" fill="black">
<rect fill="white" y="0.475586" width="15" height="25"/>
<path d="M2.62616 23.4756C2.50231 23.4756 2.38125 23.4383 2.27828 23.3687C2.17531 23.299 2.09506 23.1999 2.04767 23.0841C2.00028 22.9682 1.98787 22.8407 2.01203 22.7177C2.03618 22.5947 2.09581 22.4817 2.18337 22.393L11.4876 12.9717L2.18337 3.55034C2.06929 3.43073 2.00616 3.27053 2.00759 3.10425C2.00901 2.93797 2.07488 2.77891 2.191 2.66133C2.30712 2.54375 2.4642 2.47705 2.62842 2.47561C2.79263 2.47416 2.95083 2.53809 3.06895 2.65361L12.8166 12.5233C12.934 12.6422 13 12.8035 13 12.9717C13 13.1398 12.934 13.3011 12.8166 13.4201L3.06895 23.2898C3.01096 23.3489 2.94195 23.3957 2.86595 23.4276C2.78994 23.4595 2.70844 23.4758 2.62616 23.4756Z"/>
</mask>
<path d="M2.62616 23.4756C2.50231 23.4756 2.38125 23.4383 2.27828 23.3687C2.17531 23.299 2.09506 23.1999 2.04767 23.0841C2.00028 22.9682 1.98787 22.8407 2.01203 22.7177C2.03618 22.5947 2.09581 22.4817 2.18337 22.393L11.4876 12.9717L2.18337 3.55034C2.06929 3.43073 2.00616 3.27053 2.00759 3.10425C2.00901 2.93797 2.07488 2.77891 2.191 2.66133C2.30712 2.54375 2.4642 2.47705 2.62842 2.47561C2.79263 2.47416 2.95083 2.53809 3.06895 2.65361L12.8166 12.5233C12.934 12.6422 13 12.8035 13 12.9717C13 13.1398 12.934 13.3011 12.8166 13.4201L3.06895 23.2898C3.01096 23.3489 2.94195 23.3957 2.86595 23.4276C2.78994 23.4595 2.70844 23.4758 2.62616 23.4756Z" fill="black"/>
<path d="M2.62616 23.4756L2.63165 21.4756H2.62659L2.62616 23.4756ZM2.18337 22.393L0.760342 20.9877L0.76013 20.9879L2.18337 22.393ZM11.4876 12.9717L12.9107 14.377L14.2985 12.9717L12.9107 11.5663L11.4876 12.9717ZM2.18337 3.55034L0.736142 4.93074L0.748134 4.94332L0.760342 4.95568L2.18337 3.55034ZM3.06895 2.65361L4.49194 1.24822L4.47975 1.23587L4.46734 1.22374L3.06895 2.65361ZM12.8166 12.5233L14.2399 11.1182L14.2396 11.1179L12.8166 12.5233ZM12.8166 13.4201L14.2396 14.8254L14.2399 14.8252L12.8166 13.4201ZM3.06895 23.2898L1.64596 21.8844L1.64161 21.8888L3.06895 23.2898ZM2.62659 21.4756C2.90385 21.4756 3.17277 21.5591 3.39924 21.7123L1.15733 25.025C1.58973 25.3176 2.10078 25.4755 2.62573 25.4756L2.62659 21.4756ZM3.39924 21.7123C3.6254 21.8654 3.79791 22.0803 3.8988 22.3269L0.196533 23.8412C0.392206 24.3196 0.725221 24.7326 1.15733 25.025L3.39924 21.7123ZM3.8988 22.3269C3.9996 22.5733 4.0256 22.8431 3.97454 23.1031L0.0495108 22.3323C-0.0498593 22.8383 0.00094986 23.3631 0.196533 23.8412L3.8988 22.3269ZM3.97454 23.1031C3.92346 23.3632 3.79675 23.6056 3.60661 23.7982L0.76013 20.9879C0.39487 21.3579 0.148905 21.8262 0.0495108 22.3323L3.97454 23.1031ZM3.6064 23.7984L12.9107 14.377L10.0646 11.5663L0.760342 20.9877L3.6064 23.7984ZM12.9107 11.5663L3.6064 2.14499L0.760342 4.95568L10.0646 14.377L12.9107 11.5663ZM3.6306 2.16993C3.87784 2.42913 4.01052 2.7712 4.00751 3.12142L0.00765967 3.08709C0.0018003 3.76987 0.260734 4.43232 0.736142 4.93074L3.6306 2.16993ZM4.00751 3.12142C4.00451 3.47165 3.86595 3.81158 3.61403 4.06667L0.767971 1.25599C0.283807 1.74625 0.0135192 2.4043 0.00765967 3.08709L4.00751 3.12142ZM3.61403 4.06667C3.3613 4.32258 3.01419 4.47229 2.64601 4.47553L2.61082 0.475687C1.91422 0.481817 1.25294 0.76492 0.767971 1.25599L3.61403 4.06667ZM2.64601 4.47553C2.27782 4.47877 1.92792 4.33516 1.67057 4.08347L4.46734 1.22374C3.97374 0.741009 3.30744 0.469558 2.61082 0.475687L2.64601 4.47553ZM1.64597 4.059L11.3936 13.9287L14.2396 11.1179L4.49194 1.24822L1.64597 4.059ZM11.3934 13.9285C11.1387 13.6705 11 13.3258 11 12.9717H15C15 12.2812 14.7294 11.614 14.2399 11.1182L11.3934 13.9285ZM11 12.9717C11 12.6175 11.1387 12.2729 11.3934 12.0149L14.2399 14.8252C14.7294 14.3293 15 13.6622 15 12.9717H11ZM11.3936 12.0147L1.64597 21.8844L4.49194 24.6952L14.2396 14.8254L11.3936 12.0147ZM1.64161 21.8888C1.76895 21.7591 1.92182 21.6548 2.09204 21.5834L3.63985 25.2718C3.96208 25.1366 4.25296 24.9387 4.49629 24.6907L1.64161 21.8888ZM2.09204 21.5834C2.26232 21.5119 2.44581 21.4751 2.63165 21.4756L2.62068 25.4756C2.97106 25.4765 3.31756 25.4071 3.63985 25.2718L2.09204 21.5834Z" fill="black" mask="url(#path-1-outside-1_22_1086)"/>
</svg>
