<svg width="15" height="26" viewBox="0 0 15 26" fill="none" xmlns="http://www.w3.org/2000/svg">
<mask id="path-1-outside-1_22_1053" maskUnits="userSpaceOnUse" x="0" y="0.635742" width="15" height="25" fill="black">
<rect fill="white" y="0.635742" width="15" height="25"/>
<path d="M2.62616 23.6357C2.50231 23.6357 2.38125 23.5985 2.27828 23.5288C2.17531 23.4591 2.09506 23.3601 2.04767 23.2442C2.00028 23.1284 1.98787 23.0009 2.01203 22.8779C2.03618 22.7549 2.09581 22.6419 2.18337 22.5532L11.4876 13.1318L2.18337 3.71049C2.06929 3.59088 2.00616 3.43069 2.00759 3.26441C2.00901 3.09813 2.07488 2.93907 2.191 2.82149C2.30712 2.70391 2.4642 2.63721 2.62842 2.63577C2.79263 2.63432 2.95083 2.69824 3.06895 2.81376L12.8166 12.6835C12.934 12.8024 13 12.9637 13 13.1318C13 13.3 12.934 13.4613 12.8166 13.5802L3.06895 23.4499C3.01096 23.509 2.94195 23.5559 2.86595 23.5878C2.78994 23.6197 2.70844 23.636 2.62616 23.6357Z"/>
</mask>
<path d="M2.62616 23.6357C2.50231 23.6357 2.38125 23.5985 2.27828 23.5288C2.17531 23.4591 2.09506 23.3601 2.04767 23.2442C2.00028 23.1284 1.98787 23.0009 2.01203 22.8779C2.03618 22.7549 2.09581 22.6419 2.18337 22.5532L11.4876 13.1318L2.18337 3.71049C2.06929 3.59088 2.00616 3.43069 2.00759 3.26441C2.00901 3.09813 2.07488 2.93907 2.191 2.82149C2.30712 2.70391 2.4642 2.63721 2.62842 2.63577C2.79263 2.63432 2.95083 2.69824 3.06895 2.81376L12.8166 12.6835C12.934 12.8024 13 12.9637 13 13.1318C13 13.3 12.934 13.4613 12.8166 13.5802L3.06895 23.4499C3.01096 23.509 2.94195 23.5559 2.86595 23.5878C2.78994 23.6197 2.70844 23.636 2.62616 23.6357Z" fill="white"/>
<path d="M2.62616 23.6357L2.63165 21.6357H2.62659L2.62616 23.6357ZM2.18337 22.5532L0.760342 21.1479L0.76013 21.1481L2.18337 22.5532ZM11.4876 13.1318L12.9107 14.5372L14.2985 13.1318L12.9107 11.7265L11.4876 13.1318ZM2.18337 3.71049L0.736142 5.0909L0.748134 5.10347L0.760342 5.11583L2.18337 3.71049ZM3.06895 2.81376L4.49194 1.40838L4.47975 1.39603L4.46734 1.3839L3.06895 2.81376ZM12.8166 12.6835L14.2399 11.2784L14.2396 11.2781L12.8166 12.6835ZM12.8166 13.5802L14.2396 14.9856L14.2399 14.9853L12.8166 13.5802ZM3.06895 23.4499L1.64596 22.0445L1.64161 22.049L3.06895 23.4499ZM2.62659 21.6357C2.90385 21.6358 3.17277 21.7192 3.39924 21.8725L1.15733 25.1852C1.58973 25.4778 2.10078 25.6356 2.62573 25.6357L2.62659 21.6357ZM3.39924 21.8725C3.6254 22.0255 3.79791 22.2404 3.8988 22.4871L0.196533 24.0014C0.392206 24.4798 0.725221 24.8927 1.15733 25.1852L3.39924 21.8725ZM3.8988 22.4871C3.9996 22.7335 4.0256 23.0033 3.97454 23.2633L0.0495108 22.4925C-0.0498593 22.9985 0.00094986 23.5232 0.196533 24.0014L3.8988 22.4871ZM3.97454 23.2633C3.92346 23.5234 3.79675 23.7657 3.60661 23.9583L0.76013 21.1481C0.39487 21.518 0.148905 21.9863 0.0495108 22.4925L3.97454 23.2633ZM3.6064 23.9585L12.9107 14.5372L10.0646 11.7265L0.760342 21.1479L3.6064 23.9585ZM12.9107 11.7265L3.6064 2.30515L0.760342 5.11583L10.0646 14.5372L12.9107 11.7265ZM3.6306 2.33008C3.87784 2.58929 4.01052 2.93136 4.00751 3.28157L0.00765967 3.24725C0.0018003 3.93002 0.260734 4.59248 0.736142 5.0909L3.6306 2.33008ZM4.00751 3.28157C4.00451 3.6318 3.86595 3.97174 3.61403 4.22683L0.767971 1.41615C0.283807 1.9064 0.0135192 2.56446 0.00765967 3.24725L4.00751 3.28157ZM3.61403 4.22683C3.3613 4.48274 3.01419 4.63245 2.64601 4.63569L2.61082 0.635844C1.91422 0.641973 1.25294 0.925076 0.767971 1.41615L3.61403 4.22683ZM2.64601 4.63569C2.27782 4.63893 1.92792 4.49532 1.67057 4.24363L4.46734 1.3839C3.97374 0.901165 3.30744 0.629714 2.61082 0.635844L2.64601 4.63569ZM1.64597 4.21915L11.3936 14.0889L14.2396 11.2781L4.49194 1.40838L1.64597 4.21915ZM11.3934 14.0886C11.1387 13.8306 11 13.486 11 13.1318H15C15 12.4414 14.7294 11.7742 14.2399 11.2784L11.3934 14.0886ZM11 13.1318C11 12.7777 11.1387 12.4331 11.3934 12.1751L14.2399 14.9853C14.7294 14.4895 15 13.8223 15 13.1318H11ZM11.3936 12.1748L1.64597 22.0445L4.49194 24.8553L14.2396 14.9856L11.3936 12.1748ZM1.64161 22.049C1.76895 21.9192 1.92182 21.815 2.09204 21.7436L3.63985 25.432C3.96208 25.2967 4.25296 25.0988 4.49629 24.8509L1.64161 22.049ZM2.09204 21.7436C2.26232 21.6721 2.44581 21.6352 2.63165 21.6357L2.62068 25.6357C2.97106 25.6367 3.31756 25.5672 3.63985 25.432L2.09204 21.7436Z" fill="white" mask="url(#path-1-outside-1_22_1053)"/>
</svg>
