<svg width="81" height="69" viewBox="0 0 81 69" fill="none" xmlns="http://www.w3.org/2000/svg">
<g filter="url(#filter0_d_1_2140)">
<path d="M56.6035 33.334V52.8419C56.6035 53.5463 56.3495 54.1559 55.8414 54.6707C55.3334 55.1855 54.7318 55.4429 54.0367 55.4429H38.6357V39.8366H28.3684V55.4429H12.9674C12.2723 55.4429 11.6707 55.1855 11.1626 54.6707C10.6546 54.1559 10.4006 53.5463 10.4006 52.8419V33.334C10.4006 33.3069 10.4073 33.2663 10.4207 33.2121C10.434 33.1579 10.4407 33.1173 10.4407 33.0902L33.502 13.8262L56.5634 33.0902C56.5901 33.1444 56.6035 33.2256 56.6035 33.334ZM65.5473 30.5298L63.0606 33.5372C62.8467 33.7811 62.566 33.9301 62.2184 33.9843H62.0981C61.7505 33.9843 61.4698 33.8894 61.2559 33.6998L33.502 10.2497L5.74825 33.6998C5.42739 33.9165 5.10654 34.0114 4.78569 33.9843C4.4381 33.9301 4.15735 33.7811 3.94345 33.5372L1.45683 30.5298C1.24293 30.2588 1.14935 29.9405 1.17609 29.5747C1.20282 29.2089 1.34988 28.9177 1.61726 28.7009L30.4539 4.35672C31.3095 3.65227 32.3256 3.30005 33.502 3.30005C34.6785 3.30005 35.6945 3.65227 36.5502 4.35672L46.3362 12.6476V4.7225C46.3362 4.34318 46.4565 4.03159 46.6971 3.78775C46.9378 3.5439 47.2453 3.42197 47.6196 3.42197H55.3201C55.6944 3.42197 56.0019 3.5439 56.2425 3.78775C56.4832 4.03159 56.6035 4.34318 56.6035 4.7225V21.3042L65.3868 28.7009C65.6542 28.9177 65.8013 29.2089 65.828 29.5747C65.8547 29.9405 65.7612 30.2588 65.5473 30.5298Z" fill="#F5F5F5"/>
<path d="M54.0367 54.9429H39.1357V39.8366V39.3366H38.6357H28.3684H27.8684V39.8366V54.9429H12.9674C12.4119 54.9429 11.9368 54.7434 11.5185 54.3195C11.1001 53.8955 10.9006 53.411 10.9006 52.8419V33.3575L33.502 14.4777L56.1035 33.3575V52.8419C56.1035 53.411 55.904 53.8955 55.4856 54.3195C55.0673 54.7434 54.5922 54.9429 54.0367 54.9429ZM65.3293 29.6111C65.3474 29.8588 65.2871 30.0505 65.1579 30.216L62.6805 33.2123C62.5575 33.3505 62.3978 33.4433 62.1764 33.4843H62.0981C61.8451 33.4843 61.6912 33.4176 61.5876 33.3257L61.5877 33.3256L61.5786 33.3179L33.8247 9.8678L33.502 9.59514L33.1793 9.8678L5.44738 33.2994C5.21767 33.4497 5.02037 33.4982 4.84457 33.4873C4.61443 33.448 4.44968 33.354 4.32361 33.2123L1.84616 30.216C1.71698 30.0505 1.65665 29.8588 1.67476 29.6111C1.69217 29.3729 1.77959 29.213 1.93213 29.0893L1.93219 29.0894L1.9398 29.083L30.7741 4.7408C31.5339 4.11607 32.4349 3.80005 33.502 3.80005C34.569 3.80005 35.4698 4.11596 36.2296 4.74046C36.2305 4.74122 36.2314 4.74197 36.2323 4.74273L46.013 13.0291L46.8362 13.7265V12.6476V4.7225C46.8362 4.45922 46.915 4.2788 47.053 4.13895C47.1905 3.99961 47.3653 3.92197 47.6196 3.92197H55.3201C55.5743 3.92197 55.7491 3.99961 55.8866 4.13895C56.0246 4.2788 56.1035 4.45922 56.1035 4.7225V21.3042V21.5368L56.2814 21.6866L65.0648 29.0833L65.0647 29.0834L65.072 29.0893C65.2245 29.213 65.3119 29.3729 65.3293 29.6111Z" stroke="black"/>
</g>
<defs>
<filter id="filter0_d_1_2140" x="0.171631" y="0.300049" width="80.6609" height="68.1428" filterUnits="userSpaceOnUse" color-interpolation-filters="sRGB">
<feFlood flood-opacity="0" result="BackgroundImageFix"/>
<feColorMatrix in="SourceAlpha" type="matrix" values="0 0 0 0 0 0 0 0 0 0 0 0 0 0 0 0 0 0 127 0" result="hardAlpha"/>
<feOffset dx="7" dy="5"/>
<feGaussianBlur stdDeviation="4"/>
<feComposite in2="hardAlpha" operator="out"/>
<feColorMatrix type="matrix" values="0 0 0 0 0 0 0 0 0 0 0 0 0 0 0 0 0 0 0.7 0"/>
<feBlend mode="normal" in2="BackgroundImageFix" result="effect1_dropShadow_1_2140"/>
<feBlend mode="normal" in="SourceGraphic" in2="effect1_dropShadow_1_2140" result="shape"/>
</filter>
</defs>
</svg>
