<svg width="15" height="26" viewBox="0 0 15 26" fill="none" xmlns="http://www.w3.org/2000/svg">
<mask id="path-1-outside-1_22_1317" maskUnits="userSpaceOnUse" x="0" y="0.0201416" width="15" height="25" fill="black">
<rect fill="white" y="0.0201416" width="15" height="25"/>
<path d="M2.62616 23.0201C2.50231 23.0201 2.38125 22.9829 2.27828 22.9132C2.17531 22.8435 2.09506 22.7445 2.04767 22.6286C2.00028 22.5128 1.98787 22.3853 2.01203 22.2623C2.03618 22.1393 2.09581 22.0263 2.18337 21.9376L11.4876 12.5162L2.18337 3.09489C2.06929 2.97528 2.00616 2.81509 2.00759 2.64881C2.00901 2.48253 2.07488 2.32347 2.191 2.20589C2.30712 2.08831 2.4642 2.02161 2.62842 2.02017C2.79263 2.01872 2.95083 2.08264 3.06895 2.19816L12.8166 12.0679C12.934 12.1868 13 12.3481 13 12.5162C13 12.6844 12.934 12.8457 12.8166 12.9646L3.06895 22.8343C3.01096 22.8934 2.94195 22.9403 2.86595 22.9722C2.78994 23.0041 2.70844 23.0204 2.62616 23.0201Z"/>
</mask>
<path d="M2.62616 23.0201C2.50231 23.0201 2.38125 22.9829 2.27828 22.9132C2.17531 22.8435 2.09506 22.7445 2.04767 22.6286C2.00028 22.5128 1.98787 22.3853 2.01203 22.2623C2.03618 22.1393 2.09581 22.0263 2.18337 21.9376L11.4876 12.5162L2.18337 3.09489C2.06929 2.97528 2.00616 2.81509 2.00759 2.64881C2.00901 2.48253 2.07488 2.32347 2.191 2.20589C2.30712 2.08831 2.4642 2.02161 2.62842 2.02017C2.79263 2.01872 2.95083 2.08264 3.06895 2.19816L12.8166 12.0679C12.934 12.1868 13 12.3481 13 12.5162C13 12.6844 12.934 12.8457 12.8166 12.9646L3.06895 22.8343C3.01096 22.8934 2.94195 22.9403 2.86595 22.9722C2.78994 23.0041 2.70844 23.0204 2.62616 23.0201Z" fill="white"/>
<path d="M2.62616 23.0201L2.63165 21.0201H2.62659L2.62616 23.0201ZM2.18337 21.9376L0.760342 20.5323L0.76013 20.5325L2.18337 21.9376ZM11.4876 12.5162L12.9107 13.9216L14.2985 12.5162L12.9107 11.1109L11.4876 12.5162ZM2.18337 3.09489L0.736142 4.4753L0.748134 4.48787L0.760342 4.50023L2.18337 3.09489ZM3.06895 2.19816L4.49194 0.792775L4.47975 0.78043L4.46734 0.7683L3.06895 2.19816ZM12.8166 12.0679L14.2399 10.6628L14.2396 10.6625L12.8166 12.0679ZM12.8166 12.9646L14.2396 14.37L14.2399 14.3697L12.8166 12.9646ZM3.06895 22.8343L1.64596 21.4289L1.64161 21.4334L3.06895 22.8343ZM2.62659 21.0201C2.90385 21.0202 3.17277 21.1036 3.39924 21.2569L1.15733 24.5696C1.58973 24.8622 2.10078 25.02 2.62573 25.0201L2.62659 21.0201ZM3.39924 21.2569C3.6254 21.4099 3.79791 21.6248 3.8988 21.8715L0.196533 23.3858C0.392206 23.8642 0.725221 24.2771 1.15733 24.5696L3.39924 21.2569ZM3.8988 21.8715C3.9996 22.1179 4.0256 22.3877 3.97454 22.6477L0.0495108 21.8769C-0.0498593 22.3829 0.00094986 22.9076 0.196533 23.3858L3.8988 21.8715ZM3.97454 22.6477C3.92346 22.9078 3.79675 23.1501 3.60661 23.3427L0.76013 20.5325C0.39487 20.9024 0.148905 21.3707 0.0495108 21.8769L3.97454 22.6477ZM3.6064 23.3429L12.9107 13.9216L10.0646 11.1109L0.760342 20.5323L3.6064 23.3429ZM12.9107 11.1109L3.6064 1.68955L0.760342 4.50023L10.0646 13.9216L12.9107 11.1109ZM3.6306 1.71448C3.87784 1.97369 4.01052 2.31576 4.00751 2.66597L0.00765967 2.63165C0.0018003 3.31442 0.260734 3.97688 0.736142 4.4753L3.6306 1.71448ZM4.00751 2.66597C4.00451 3.0162 3.86595 3.35614 3.61403 3.61123L0.767971 0.800545C0.283807 1.2908 0.0135192 1.94886 0.00765967 2.63165L4.00751 2.66597ZM3.61403 3.61123C3.3613 3.86714 3.01419 4.01685 2.64601 4.02009L2.61082 0.020243C1.91422 0.0263724 1.25294 0.309475 0.767971 0.800545L3.61403 3.61123ZM2.64601 4.02009C2.27782 4.02333 1.92792 3.87972 1.67057 3.62803L4.46734 0.7683C3.97374 0.285565 3.30744 0.0141134 2.61082 0.020243L2.64601 4.02009ZM1.64597 3.60355L11.3936 13.4733L14.2396 10.6625L4.49194 0.792775L1.64597 3.60355ZM11.3934 13.473C11.1387 13.215 11 12.8704 11 12.5162H15C15 11.8258 14.7294 11.1586 14.2399 10.6628L11.3934 13.473ZM11 12.5162C11 12.1621 11.1387 11.8175 11.3934 11.5595L14.2399 14.3697C14.7294 13.8739 15 13.2067 15 12.5162H11ZM11.3936 11.5592L1.64597 21.4289L4.49194 24.2397L14.2396 14.37L11.3936 11.5592ZM1.64161 21.4334C1.76895 21.3036 1.92182 21.1994 2.09204 21.128L3.63985 24.8164C3.96208 24.6811 4.25296 24.4832 4.49629 24.2353L1.64161 21.4334ZM2.09204 21.128C2.26232 21.0565 2.44581 21.0196 2.63165 21.0201L2.62068 25.0201C2.97106 25.0211 3.31756 24.9516 3.63985 24.8164L2.09204 21.128Z" fill="white" mask="url(#path-1-outside-1_22_1317)"/>
</svg>
