<svg width="15" height="26" viewBox="0 0 15 26" fill="none" xmlns="http://www.w3.org/2000/svg">
<mask id="path-1-outside-1_22_1020" maskUnits="userSpaceOnUse" x="0" y="0.659912" width="15" height="25" fill="black">
<rect fill="white" y="0.659912" width="15" height="25"/>
<path d="M2.62616 23.6599C2.50231 23.6599 2.38125 23.6227 2.27828 23.553C2.17531 23.4833 2.09506 23.3843 2.04767 23.2684C2.00028 23.1525 1.98787 23.025 2.01203 22.902C2.03618 22.779 2.09581 22.6661 2.18337 22.5774L11.4876 13.156L2.18337 3.73466C2.06929 3.61505 2.00616 3.45486 2.00759 3.28858C2.00901 3.1223 2.07488 2.96324 2.191 2.84566C2.30712 2.72808 2.4642 2.66138 2.62842 2.65994C2.79263 2.65849 2.95083 2.72241 3.06895 2.83793L12.8166 12.7076C12.934 12.8266 13 12.9879 13 13.156C13 13.3242 12.934 13.4855 12.8166 13.6044L3.06895 23.4741C3.01096 23.5332 2.94195 23.58 2.86595 23.6119C2.78994 23.6438 2.70844 23.6601 2.62616 23.6599Z"/>
</mask>
<path d="M2.62616 23.6599C2.50231 23.6599 2.38125 23.6227 2.27828 23.553C2.17531 23.4833 2.09506 23.3843 2.04767 23.2684C2.00028 23.1525 1.98787 23.025 2.01203 22.902C2.03618 22.779 2.09581 22.6661 2.18337 22.5774L11.4876 13.156L2.18337 3.73466C2.06929 3.61505 2.00616 3.45486 2.00759 3.28858C2.00901 3.1223 2.07488 2.96324 2.191 2.84566C2.30712 2.72808 2.4642 2.66138 2.62842 2.65994C2.79263 2.65849 2.95083 2.72241 3.06895 2.83793L12.8166 12.7076C12.934 12.8266 13 12.9879 13 13.156C13 13.3242 12.934 13.4855 12.8166 13.6044L3.06895 23.4741C3.01096 23.5332 2.94195 23.58 2.86595 23.6119C2.78994 23.6438 2.70844 23.6601 2.62616 23.6599Z" fill="black"/>
<path d="M2.62616 23.6599L2.63165 21.6599H2.62659L2.62616 23.6599ZM2.18337 22.5774L0.760342 21.172L0.76013 21.1722L2.18337 22.5774ZM11.4876 13.156L12.9107 14.5614L14.2985 13.156L12.9107 11.7507L11.4876 13.156ZM2.18337 3.73466L0.736142 5.11507L0.748134 5.12764L0.760342 5.14L2.18337 3.73466ZM3.06895 2.83793L4.49194 1.43255L4.47975 1.4202L4.46734 1.40807L3.06895 2.83793ZM12.8166 12.7076L14.2399 11.3025L14.2396 11.3023L12.8166 12.7076ZM12.8166 13.6044L14.2396 15.0098L14.2399 15.0095L12.8166 13.6044ZM3.06895 23.4741L1.64596 22.0687L1.64161 22.0731L3.06895 23.4741ZM2.62659 21.6599C2.90385 21.66 3.17277 21.7434 3.39924 21.8967L1.15733 25.2093C1.58973 25.502 2.10078 25.6598 2.62573 25.6599L2.62659 21.6599ZM3.39924 21.8967C3.6254 22.0497 3.79791 22.2646 3.8988 22.5112L0.196533 24.0256C0.392206 24.504 0.725221 24.9169 1.15733 25.2093L3.39924 21.8967ZM3.8988 22.5112C3.9996 22.7577 4.0256 23.0274 3.97454 23.2874L0.0495108 22.5166C-0.0498593 23.0227 0.00094986 23.5474 0.196533 24.0256L3.8988 22.5112ZM3.97454 23.2874C3.92346 23.5476 3.79675 23.7899 3.60661 23.9825L0.76013 21.1722C0.39487 21.5422 0.148905 22.0105 0.0495108 22.5166L3.97454 23.2874ZM3.6064 23.9827L12.9107 14.5614L10.0646 11.7507L0.760342 21.172L3.6064 23.9827ZM12.9107 11.7507L3.6064 2.32932L0.760342 5.14L10.0646 14.5614L12.9107 11.7507ZM3.6306 2.35425C3.87784 2.61346 4.01052 2.95553 4.00751 3.30574L0.00765967 3.27142C0.0018003 3.95419 0.260734 4.61665 0.736142 5.11507L3.6306 2.35425ZM4.00751 3.30574C4.00451 3.65597 3.86595 3.99591 3.61403 4.251L0.767971 1.44032C0.283807 1.93057 0.0135192 2.58863 0.00765967 3.27142L4.00751 3.30574ZM3.61403 4.251C3.3613 4.50691 3.01419 4.65662 2.64601 4.65986L2.61082 0.660014C1.91422 0.666143 1.25294 0.949246 0.767971 1.44032L3.61403 4.251ZM2.64601 4.65986C2.27782 4.6631 1.92792 4.51949 1.67057 4.2678L4.46734 1.40807C3.97374 0.925335 3.30744 0.653884 2.61082 0.660014L2.64601 4.65986ZM1.64597 4.24332L11.3936 14.113L14.2396 11.3023L4.49194 1.43255L1.64597 4.24332ZM11.3934 14.1128C11.1387 13.8548 11 13.5102 11 13.156H15C15 12.4655 14.7294 11.7984 14.2399 11.3025L11.3934 14.1128ZM11 13.156C11 12.8019 11.1387 12.4572 11.3934 12.1993L14.2399 15.0095C14.7294 14.5137 15 13.8465 15 13.156H11ZM11.3936 12.199L1.64597 22.0687L4.49194 24.8795L14.2396 15.0098L11.3936 12.199ZM1.64161 22.0731C1.76895 21.9434 1.92182 21.8392 2.09204 21.7677L3.63985 25.4561C3.96208 25.3209 4.25296 25.123 4.49629 24.8751L1.64161 22.0731ZM2.09204 21.7677C2.26232 21.6963 2.44581 21.6594 2.63165 21.6599L2.62068 25.6599C2.97106 25.6609 3.31756 25.5914 3.63985 25.4561L2.09204 21.7677Z" fill="black" mask="url(#path-1-outside-1_22_1020)"/>
</svg>
