<svg width="15" height="26" viewBox="0 0 15 26" fill="none" xmlns="http://www.w3.org/2000/svg">
<mask id="path-1-outside-1_22_1218" maskUnits="userSpaceOnUse" x="0" y="0.752075" width="15" height="25" fill="black">
<rect fill="white" y="0.752075" width="15" height="25"/>
<path d="M2.62616 23.7521C2.50231 23.752 2.38125 23.7148 2.27828 23.6452C2.17531 23.5755 2.09506 23.4764 2.04767 23.3606C2.00028 23.2447 1.98787 23.1172 2.01203 22.9942C2.03618 22.8712 2.09581 22.7582 2.18337 22.6695L11.4876 13.2482L2.18337 3.82682C2.06929 3.70722 2.00616 3.54702 2.00759 3.38074C2.00901 3.21446 2.07488 3.0554 2.191 2.93782C2.30712 2.82024 2.4642 2.75354 2.62842 2.7521C2.79263 2.75065 2.95083 2.81458 3.06895 2.9301L12.8166 12.7998C12.934 12.9187 13 13.08 13 13.2482C13 13.4163 12.934 13.5776 12.8166 13.6965L3.06895 23.5663C3.01096 23.6253 2.94195 23.6722 2.86595 23.7041C2.78994 23.736 2.70844 23.7523 2.62616 23.7521Z"/>
</mask>
<path d="M2.62616 23.7521C2.50231 23.752 2.38125 23.7148 2.27828 23.6452C2.17531 23.5755 2.09506 23.4764 2.04767 23.3606C2.00028 23.2447 1.98787 23.1172 2.01203 22.9942C2.03618 22.8712 2.09581 22.7582 2.18337 22.6695L11.4876 13.2482L2.18337 3.82682C2.06929 3.70722 2.00616 3.54702 2.00759 3.38074C2.00901 3.21446 2.07488 3.0554 2.191 2.93782C2.30712 2.82024 2.4642 2.75354 2.62842 2.7521C2.79263 2.75065 2.95083 2.81458 3.06895 2.9301L12.8166 12.7998C12.934 12.9187 13 13.08 13 13.2482C13 13.4163 12.934 13.5776 12.8166 13.6965L3.06895 23.5663C3.01096 23.6253 2.94195 23.6722 2.86595 23.7041C2.78994 23.736 2.70844 23.7523 2.62616 23.7521Z" fill="black"/>
<path d="M2.62616 23.7521L2.63165 21.7521H2.62659L2.62616 23.7521ZM2.18337 22.6695L0.760342 21.2642L0.76013 21.2644L2.18337 22.6695ZM11.4876 13.2482L12.9107 14.6535L14.2985 13.2482L12.9107 11.8428L11.4876 13.2482ZM2.18337 3.82682L0.736142 5.20723L0.748134 5.21981L0.760342 5.23217L2.18337 3.82682ZM3.06895 2.9301L4.49194 1.52471L4.47975 1.51236L4.46734 1.50023L3.06895 2.9301ZM12.8166 12.7998L14.2399 11.3947L14.2396 11.3944L12.8166 12.7998ZM12.8166 13.6965L14.2396 15.1019L14.2399 15.1017L12.8166 13.6965ZM3.06895 23.5663L1.64596 22.1609L1.64161 22.1653L3.06895 23.5663ZM2.62659 21.7521C2.90385 21.7521 3.17277 21.8355 3.39924 21.9888L1.15733 25.3015C1.58973 25.5941 2.10078 25.752 2.62573 25.7521L2.62659 21.7521ZM3.39924 21.9888C3.6254 22.1419 3.79791 22.3567 3.8988 22.6034L0.196533 24.1177C0.392206 24.5961 0.725221 25.0091 1.15733 25.3015L3.39924 21.9888ZM3.8988 22.6034C3.9996 22.8498 4.0256 23.1196 3.97454 23.3796L0.0495108 22.6088C-0.0498593 23.1148 0.00094986 23.6396 0.196533 24.1177L3.8988 22.6034ZM3.97454 23.3796C3.92346 23.6397 3.79675 23.8821 3.60661 24.0747L0.76013 21.2644C0.39487 21.6344 0.148905 22.1027 0.0495108 22.6088L3.97454 23.3796ZM3.6064 24.0749L12.9107 14.6535L10.0646 11.8428L0.760342 21.2642L3.6064 24.0749ZM12.9107 11.8428L3.6064 2.42148L0.760342 5.23217L10.0646 14.6535L12.9107 11.8428ZM3.6306 2.44642C3.87784 2.70562 4.01052 3.04769 4.00751 3.39791L0.00765967 3.36358C0.0018003 4.04635 0.260734 4.70881 0.736142 5.20723L3.6306 2.44642ZM4.00751 3.39791C4.00451 3.74814 3.86595 4.08807 3.61403 4.34316L0.767971 1.53248C0.283807 2.02274 0.0135192 2.68079 0.00765967 3.36358L4.00751 3.39791ZM3.61403 4.34316C3.3613 4.59907 3.01419 4.74878 2.64601 4.75202L2.61082 0.752177C1.91422 0.758306 1.25294 1.04141 0.767971 1.53248L3.61403 4.34316ZM2.64601 4.75202C2.27782 4.75526 1.92792 4.61165 1.67057 4.35996L4.46734 1.50023C3.97374 1.0175 3.30744 0.746047 2.61082 0.752177L2.64601 4.75202ZM1.64597 4.33548L11.3936 14.2052L14.2396 11.3944L4.49194 1.52471L1.64597 4.33548ZM11.3934 14.2049C11.1387 13.9469 11 13.6023 11 13.2482H15C15 12.5577 14.7294 11.8905 14.2399 11.3947L11.3934 14.2049ZM11 13.2482C11 12.894 11.1387 12.5494 11.3934 12.2914L14.2399 15.1017C14.7294 14.6058 15 13.9386 15 13.2482H11ZM11.3936 12.2912L1.64597 22.1609L4.49194 24.9716L14.2396 15.1019L11.3936 12.2912ZM1.64161 22.1653C1.76895 22.0356 1.92182 21.9313 2.09204 21.8599L3.63985 25.5483C3.96208 25.4131 4.25296 25.2151 4.49629 24.9672L1.64161 22.1653ZM2.09204 21.8599C2.26232 21.7884 2.44581 21.7516 2.63165 21.7521L2.62068 25.7521C2.97106 25.753 3.31756 25.6835 3.63985 25.5483L2.09204 21.8599Z" fill="black" mask="url(#path-1-outside-1_22_1218)"/>
</svg>
