<svg width="15" height="26" viewBox="0 0 15 26" fill="none" xmlns="http://www.w3.org/2000/svg">
<mask id="path-1-outside-1_22_1383" maskUnits="userSpaceOnUse" x="0" y="0.613037" width="15" height="25" fill="black">
<rect fill="white" y="0.613037" width="15" height="25"/>
<path d="M2.62616 23.613C2.50231 23.613 2.38125 23.5758 2.27828 23.5061C2.17531 23.4364 2.09506 23.3374 2.04767 23.2215C2.00028 23.1057 1.98787 22.9782 2.01203 22.8552C2.03618 22.7322 2.09581 22.6192 2.18337 22.5305L11.4876 13.1091L2.18337 3.68779C2.06929 3.56818 2.00616 3.40798 2.00759 3.2417C2.00901 3.07543 2.07488 2.91637 2.191 2.79878C2.30712 2.6812 2.4642 2.61451 2.62842 2.61306C2.79263 2.61162 2.95083 2.67554 3.06895 2.79106L12.8166 12.6608C12.934 12.7797 13 12.941 13 13.1091C13 13.2773 12.934 13.4386 12.8166 13.5575L3.06895 23.4272C3.01096 23.4863 2.94195 23.5332 2.86595 23.5651C2.78994 23.597 2.70844 23.6133 2.62616 23.613Z"/>
</mask>
<path d="M2.62616 23.613C2.50231 23.613 2.38125 23.5758 2.27828 23.5061C2.17531 23.4364 2.09506 23.3374 2.04767 23.2215C2.00028 23.1057 1.98787 22.9782 2.01203 22.8552C2.03618 22.7322 2.09581 22.6192 2.18337 22.5305L11.4876 13.1091L2.18337 3.68779C2.06929 3.56818 2.00616 3.40798 2.00759 3.2417C2.00901 3.07543 2.07488 2.91637 2.191 2.79878C2.30712 2.6812 2.4642 2.61451 2.62842 2.61306C2.79263 2.61162 2.95083 2.67554 3.06895 2.79106L12.8166 12.6608C12.934 12.7797 13 12.941 13 13.1091C13 13.2773 12.934 13.4386 12.8166 13.5575L3.06895 23.4272C3.01096 23.4863 2.94195 23.5332 2.86595 23.5651C2.78994 23.597 2.70844 23.6133 2.62616 23.613Z" fill="white"/>
<path d="M2.62616 23.613L2.63165 21.613H2.62659L2.62616 23.613ZM2.18337 22.5305L0.760342 21.1251L0.76013 21.1254L2.18337 22.5305ZM11.4876 13.1091L12.9107 14.5145L14.2985 13.1091L12.9107 11.7038L11.4876 13.1091ZM2.18337 3.68779L0.736142 5.06819L0.748134 5.08077L0.760342 5.09313L2.18337 3.68779ZM3.06895 2.79106L4.49194 1.38567L4.47975 1.37333L4.46734 1.3612L3.06895 2.79106ZM12.8166 12.6608L14.2399 11.2556L14.2396 11.2554L12.8166 12.6608ZM12.8166 13.5575L14.2396 14.9629L14.2399 14.9626L12.8166 13.5575ZM3.06895 23.4272L1.64596 22.0218L1.64161 22.0263L3.06895 23.4272ZM2.62659 21.613C2.90385 21.6131 3.17277 21.6965 3.39924 21.8498L1.15733 25.1625C1.58973 25.4551 2.10078 25.6129 2.62573 25.613L2.62659 21.613ZM3.39924 21.8498C3.6254 22.0028 3.79791 22.2177 3.8988 22.4644L0.196533 23.9787C0.392206 24.4571 0.725221 24.87 1.15733 25.1625L3.39924 21.8498ZM3.8988 22.4644C3.9996 22.7108 4.0256 22.9806 3.97454 23.2406L0.0495108 22.4698C-0.0498593 22.9758 0.00094986 23.5005 0.196533 23.9787L3.8988 22.4644ZM3.97454 23.2406C3.92346 23.5007 3.79675 23.743 3.60661 23.9356L0.76013 21.1254C0.39487 21.4953 0.148905 21.9636 0.0495108 22.4698L3.97454 23.2406ZM3.6064 23.9358L12.9107 14.5145L10.0646 11.7038L0.760342 21.1251L3.6064 23.9358ZM12.9107 11.7038L3.6064 2.28244L0.760342 5.09313L10.0646 14.5145L12.9107 11.7038ZM3.6306 2.30738C3.87784 2.56658 4.01052 2.90865 4.00751 3.25887L0.00765967 3.22454C0.0018003 3.90732 0.260734 4.56977 0.736142 5.06819L3.6306 2.30738ZM4.00751 3.25887C4.00451 3.6091 3.86595 3.94903 3.61403 4.20413L0.767971 1.39344C0.283807 1.8837 0.0135192 2.54175 0.00765967 3.22454L4.00751 3.25887ZM3.61403 4.20413C3.3613 4.46003 3.01419 4.60974 2.64601 4.61298L2.61082 0.613139C1.91422 0.619268 1.25294 0.902371 0.767971 1.39344L3.61403 4.20413ZM2.64601 4.61298C2.27782 4.61622 1.92792 4.47262 1.67057 4.22092L4.46734 1.3612C3.97374 0.87846 3.30744 0.607009 2.61082 0.613139L2.64601 4.61298ZM1.64597 4.19645L11.3936 14.0662L14.2396 11.2554L4.49194 1.38567L1.64597 4.19645ZM11.3934 14.0659C11.1387 13.8079 11 13.4633 11 13.1091H15C15 12.4187 14.7294 11.7515 14.2399 11.2556L11.3934 14.0659ZM11 13.1091C11 12.755 11.1387 12.4104 11.3934 12.1524L14.2399 14.9626C14.7294 14.4668 15 13.7996 15 13.1091H11ZM11.3936 12.1521L1.64597 22.0218L4.49194 24.8326L14.2396 14.9629L11.3936 12.1521ZM1.64161 22.0263C1.76895 21.8965 1.92182 21.7923 2.09204 21.7209L3.63985 25.4093C3.96208 25.274 4.25296 25.0761 4.49629 24.8282L1.64161 22.0263ZM2.09204 21.7209C2.26232 21.6494 2.44581 21.6125 2.63165 21.613L2.62068 25.613C2.97106 25.614 3.31756 25.5445 3.63985 25.4093L2.09204 21.7209Z" fill="white" mask="url(#path-1-outside-1_22_1383)"/>
</svg>
