<svg width="15" height="26" viewBox="0 0 15 26" fill="none" xmlns="http://www.w3.org/2000/svg">
<mask id="path-1-outside-1_22_1152" maskUnits="userSpaceOnUse" x="0" y="0.567627" width="15" height="25" fill="black">
<rect fill="white" y="0.567627" width="15" height="25"/>
<path d="M2.62616 23.5676C2.50231 23.5676 2.38125 23.5304 2.27828 23.4607C2.17531 23.391 2.09506 23.292 2.04767 23.1761C2.00028 23.0603 1.98787 22.9328 2.01203 22.8098C2.03618 22.6868 2.09581 22.5738 2.18337 22.4851L11.4876 13.0637L2.18337 3.64238C2.06929 3.52277 2.00616 3.36257 2.00759 3.19629C2.00901 3.03002 2.07488 2.87096 2.191 2.75337C2.30712 2.63579 2.4642 2.5691 2.62842 2.56765C2.79263 2.56621 2.95083 2.63013 3.06895 2.74565L12.8166 12.6154C12.934 12.7343 13 12.8956 13 13.0637C13 13.2319 12.934 13.3932 12.8166 13.5121L3.06895 23.3818C3.01096 23.4409 2.94195 23.4878 2.86595 23.5196C2.78994 23.5515 2.70844 23.5679 2.62616 23.5676Z"/>
</mask>
<path d="M2.62616 23.5676C2.50231 23.5676 2.38125 23.5304 2.27828 23.4607C2.17531 23.391 2.09506 23.292 2.04767 23.1761C2.00028 23.0603 1.98787 22.9328 2.01203 22.8098C2.03618 22.6868 2.09581 22.5738 2.18337 22.4851L11.4876 13.0637L2.18337 3.64238C2.06929 3.52277 2.00616 3.36257 2.00759 3.19629C2.00901 3.03002 2.07488 2.87096 2.191 2.75337C2.30712 2.63579 2.4642 2.5691 2.62842 2.56765C2.79263 2.56621 2.95083 2.63013 3.06895 2.74565L12.8166 12.6154C12.934 12.7343 13 12.8956 13 13.0637C13 13.2319 12.934 13.3932 12.8166 13.5121L3.06895 23.3818C3.01096 23.4409 2.94195 23.4878 2.86595 23.5196C2.78994 23.5515 2.70844 23.5679 2.62616 23.5676Z" fill="black"/>
<path d="M2.62616 23.5676L2.63165 21.5676H2.62659L2.62616 23.5676ZM2.18337 22.4851L0.760342 21.0797L0.76013 21.08L2.18337 22.4851ZM11.4876 13.0637L12.9107 14.4691L14.2985 13.0637L12.9107 11.6584L11.4876 13.0637ZM2.18337 3.64238L0.736142 5.02278L0.748134 5.03536L0.760342 5.04772L2.18337 3.64238ZM3.06895 2.74565L4.49194 1.34026L4.47975 1.32792L4.46734 1.31578L3.06895 2.74565ZM12.8166 12.6154L14.2399 11.2102L14.2396 11.21L12.8166 12.6154ZM12.8166 13.5121L14.2396 14.9175L14.2399 14.9172L12.8166 13.5121ZM3.06895 23.3818L1.64596 21.9764L1.64161 21.9808L3.06895 23.3818ZM2.62659 21.5676C2.90385 21.5677 3.17277 21.6511 3.39924 21.8044L1.15733 25.117C1.58973 25.4097 2.10078 25.5675 2.62573 25.5676L2.62659 21.5676ZM3.39924 21.8044C3.6254 21.9574 3.79791 22.1723 3.8988 22.4189L0.196533 23.9333C0.392206 24.4117 0.725221 24.8246 1.15733 25.117L3.39924 21.8044ZM3.8988 22.4189C3.9996 22.6654 4.0256 22.9351 3.97454 23.1952L0.0495108 22.4244C-0.0498593 22.9304 0.00094986 23.4551 0.196533 23.9333L3.8988 22.4189ZM3.97454 23.1952C3.92346 23.4553 3.79675 23.6976 3.60661 23.8902L0.76013 21.08C0.39487 21.4499 0.148905 21.9182 0.0495108 22.4244L3.97454 23.1952ZM3.6064 23.8904L12.9107 14.4691L10.0646 11.6584L0.760342 21.0797L3.6064 23.8904ZM12.9107 11.6584L3.6064 2.23703L0.760342 5.04772L10.0646 14.4691L12.9107 11.6584ZM3.6306 2.26197C3.87784 2.52117 4.01052 2.86324 4.00751 3.21346L0.00765967 3.17913C0.0018003 3.86191 0.260734 4.52436 0.736142 5.02278L3.6306 2.26197ZM4.00751 3.21346C4.00451 3.56369 3.86595 3.90362 3.61403 4.15872L0.767971 1.34803C0.283807 1.83829 0.0135192 2.49634 0.00765967 3.17913L4.00751 3.21346ZM3.61403 4.15872C3.3613 4.41462 3.01419 4.56433 2.64601 4.56757L2.61082 0.567728C1.91422 0.573858 1.25294 0.856961 0.767971 1.34803L3.61403 4.15872ZM2.64601 4.56757C2.27782 4.57081 1.92792 4.42721 1.67057 4.17551L4.46734 1.31578C3.97374 0.83305 3.30744 0.561599 2.61082 0.567728L2.64601 4.56757ZM1.64597 4.15104L11.3936 14.0208L14.2396 11.21L4.49194 1.34026L1.64597 4.15104ZM11.3934 14.0205C11.1387 13.7625 11 13.4179 11 13.0637H15C15 12.3733 14.7294 11.7061 14.2399 11.2102L11.3934 14.0205ZM11 13.0637C11 12.7096 11.1387 12.365 11.3934 12.107L14.2399 14.9172C14.7294 14.4214 15 13.7542 15 13.0637H11ZM11.3936 12.1067L1.64597 21.9764L4.49194 24.7872L14.2396 14.9175L11.3936 12.1067ZM1.64161 21.9808C1.76895 21.8511 1.92182 21.7469 2.09204 21.6754L3.63985 25.3638C3.96208 25.2286 4.25296 25.0307 4.49629 24.7828L1.64161 21.9808ZM2.09204 21.6754C2.26232 21.604 2.44581 21.5671 2.63165 21.5676L2.62068 25.5676C2.97106 25.5686 3.31756 25.4991 3.63985 25.3638L2.09204 21.6754Z" fill="black" mask="url(#path-1-outside-1_22_1152)"/>
</svg>
