<svg width="15" height="26" viewBox="0 0 15 26" fill="none" xmlns="http://www.w3.org/2000/svg">
<mask id="path-1-outside-1_22_1185" maskUnits="userSpaceOnUse" x="0" y="0.251221" width="15" height="25" fill="black">
<rect fill="white" y="0.251221" width="15" height="25"/>
<path d="M2.62616 23.2512C2.50231 23.2512 2.38125 23.214 2.27828 23.1443C2.17531 23.0746 2.09506 22.9756 2.04767 22.8597C2.00028 22.7438 1.98787 22.6164 2.01203 22.4934C2.03618 22.3704 2.09581 22.2574 2.18337 22.1687L11.4876 12.7473L2.18337 3.32597C2.06929 3.20636 2.00616 3.04617 2.00759 2.87989C2.00901 2.71361 2.07488 2.55455 2.191 2.43697C2.30712 2.31939 2.4642 2.25269 2.62842 2.25124C2.79263 2.2498 2.95083 2.31372 3.06895 2.42924L12.8166 12.299C12.934 12.4179 13 12.5792 13 12.7473C13 12.9155 12.934 13.0768 12.8166 13.1957L3.06895 23.0654C3.01096 23.1245 2.94195 23.1713 2.86595 23.2032C2.78994 23.2351 2.70844 23.2514 2.62616 23.2512Z"/>
</mask>
<path d="M2.62616 23.2512C2.50231 23.2512 2.38125 23.214 2.27828 23.1443C2.17531 23.0746 2.09506 22.9756 2.04767 22.8597C2.00028 22.7438 1.98787 22.6164 2.01203 22.4934C2.03618 22.3704 2.09581 22.2574 2.18337 22.1687L11.4876 12.7473L2.18337 3.32597C2.06929 3.20636 2.00616 3.04617 2.00759 2.87989C2.00901 2.71361 2.07488 2.55455 2.191 2.43697C2.30712 2.31939 2.4642 2.25269 2.62842 2.25124C2.79263 2.2498 2.95083 2.31372 3.06895 2.42924L12.8166 12.299C12.934 12.4179 13 12.5792 13 12.7473C13 12.9155 12.934 13.0768 12.8166 13.1957L3.06895 23.0654C3.01096 23.1245 2.94195 23.1713 2.86595 23.2032C2.78994 23.2351 2.70844 23.2514 2.62616 23.2512Z" fill="white"/>
<path d="M2.62616 23.2512L2.63165 21.2512H2.62659L2.62616 23.2512ZM2.18337 22.1687L0.760342 20.7633L0.76013 20.7635L2.18337 22.1687ZM11.4876 12.7473L12.9107 14.1527L14.2985 12.7473L12.9107 11.342L11.4876 12.7473ZM2.18337 3.32597L0.736142 4.70638L0.748134 4.71895L0.760342 4.73131L2.18337 3.32597ZM3.06895 2.42924L4.49194 1.02385L4.47975 1.01151L4.46734 0.999379L3.06895 2.42924ZM12.8166 12.299L14.2399 10.8938L14.2396 10.8936L12.8166 12.299ZM12.8166 13.1957L14.2396 14.6011L14.2399 14.6008L12.8166 13.1957ZM3.06895 23.0654L1.64596 21.66L1.64161 21.6644L3.06895 23.0654ZM2.62659 21.2512C2.90385 21.2513 3.17277 21.3347 3.39924 21.488L1.15733 24.8006C1.58973 25.0933 2.10078 25.2511 2.62573 25.2512L2.62659 21.2512ZM3.39924 21.488C3.6254 21.641 3.79791 21.8559 3.8988 22.1025L0.196533 23.6169C0.392206 24.0953 0.725221 24.5082 1.15733 24.8006L3.39924 21.488ZM3.8988 22.1025C3.9996 22.349 4.0256 22.6187 3.97454 22.8788L0.0495108 22.108C-0.0498593 22.614 0.00094986 23.1387 0.196533 23.6169L3.8988 22.1025ZM3.97454 22.8788C3.92346 23.1389 3.79675 23.3812 3.60661 23.5738L0.76013 20.7635C0.39487 21.1335 0.148905 21.6018 0.0495108 22.108L3.97454 22.8788ZM3.6064 23.574L12.9107 14.1527L10.0646 11.342L0.760342 20.7633L3.6064 23.574ZM12.9107 11.342L3.6064 1.92063L0.760342 4.73131L10.0646 14.1527L12.9107 11.342ZM3.6306 1.94556C3.87784 2.20477 4.01052 2.54684 4.00751 2.89705L0.00765967 2.86273C0.0018003 3.5455 0.260734 4.20796 0.736142 4.70638L3.6306 1.94556ZM4.00751 2.89705C4.00451 3.24728 3.86595 3.58722 3.61403 3.84231L0.767971 1.03162C0.283807 1.52188 0.0135192 2.17994 0.00765967 2.86273L4.00751 2.89705ZM3.61403 3.84231C3.3613 4.09822 3.01419 4.24793 2.64601 4.25117L2.61082 0.251322C1.91422 0.257452 1.25294 0.540554 0.767971 1.03162L3.61403 3.84231ZM2.64601 4.25117C2.27782 4.25441 1.92792 4.1108 1.67057 3.85911L4.46734 0.999379C3.97374 0.516644 3.30744 0.245193 2.61082 0.251322L2.64601 4.25117ZM1.64597 3.83463L11.3936 13.7043L14.2396 10.8936L4.49194 1.02385L1.64597 3.83463ZM11.3934 13.7041C11.1387 13.4461 11 13.1015 11 12.7473H15C15 12.0569 14.7294 11.3897 14.2399 10.8938L11.3934 13.7041ZM11 12.7473C11 12.3932 11.1387 12.0486 11.3934 11.7906L14.2399 14.6008C14.7294 14.105 15 13.4378 15 12.7473H11ZM11.3936 11.7903L1.64597 21.66L4.49194 24.4708L14.2396 14.6011L11.3936 11.7903ZM1.64161 21.6644C1.76895 21.5347 1.92182 21.4305 2.09204 21.359L3.63985 25.0474C3.96208 24.9122 4.25296 24.7143 4.49629 24.4664L1.64161 21.6644ZM2.09204 21.359C2.26232 21.2876 2.44581 21.2507 2.63165 21.2512L2.62068 25.2512C2.97106 25.2522 3.31756 25.1827 3.63985 25.0474L2.09204 21.359Z" fill="white" mask="url(#path-1-outside-1_22_1185)"/>
</svg>
