<svg width="15" height="26" viewBox="0 0 15 26" fill="none" xmlns="http://www.w3.org/2000/svg">
<mask id="path-1-outside-1_22_987" maskUnits="userSpaceOnUse" x="0" y="0.482422" width="15" height="25" fill="black">
<rect fill="white" y="0.482422" width="15" height="25"/>
<path d="M2.62616 23.4824C2.50231 23.4824 2.38125 23.4452 2.27828 23.3755C2.17531 23.3058 2.09506 23.2068 2.04767 23.0909C2.00028 22.975 1.98787 22.8476 2.01203 22.7246C2.03618 22.6016 2.09581 22.4886 2.18337 22.3999L11.4876 12.9785L2.18337 3.55717C2.06929 3.43756 2.00616 3.27737 2.00759 3.11109C2.00901 2.94481 2.07488 2.78575 2.191 2.66817C2.30712 2.55059 2.4642 2.48389 2.62842 2.48245C2.79263 2.481 2.95083 2.54492 3.06895 2.66044L12.8166 12.5302C12.934 12.6491 13 12.8104 13 12.9785C13 13.1467 12.934 13.308 12.8166 13.4269L3.06895 23.2966C3.01096 23.3557 2.94195 23.4025 2.86595 23.4344C2.78994 23.4663 2.70844 23.4826 2.62616 23.4824Z"/>
</mask>
<path d="M2.62616 23.4824C2.50231 23.4824 2.38125 23.4452 2.27828 23.3755C2.17531 23.3058 2.09506 23.2068 2.04767 23.0909C2.00028 22.975 1.98787 22.8476 2.01203 22.7246C2.03618 22.6016 2.09581 22.4886 2.18337 22.3999L11.4876 12.9785L2.18337 3.55717C2.06929 3.43756 2.00616 3.27737 2.00759 3.11109C2.00901 2.94481 2.07488 2.78575 2.191 2.66817C2.30712 2.55059 2.4642 2.48389 2.62842 2.48245C2.79263 2.481 2.95083 2.54492 3.06895 2.66044L12.8166 12.5302C12.934 12.6491 13 12.8104 13 12.9785C13 13.1467 12.934 13.308 12.8166 13.4269L3.06895 23.2966C3.01096 23.3557 2.94195 23.4025 2.86595 23.4344C2.78994 23.4663 2.70844 23.4826 2.62616 23.4824Z" fill="white"/>
<path d="M2.62616 23.4824L2.63165 21.4824H2.62659L2.62616 23.4824ZM2.18337 22.3999L0.760342 20.9945L0.76013 20.9947L2.18337 22.3999ZM11.4876 12.9785L12.9107 14.3839L14.2985 12.9785L12.9107 11.5732L11.4876 12.9785ZM2.18337 3.55717L0.736142 4.93758L0.748134 4.95015L0.760342 4.96251L2.18337 3.55717ZM3.06895 2.66044L4.49194 1.25505L4.47975 1.24271L4.46734 1.23058L3.06895 2.66044ZM12.8166 12.5302L14.2399 11.125L14.2396 11.1248L12.8166 12.5302ZM12.8166 13.4269L14.2396 14.8323L14.2399 14.832L12.8166 13.4269ZM3.06895 23.2966L1.64596 21.8912L1.64161 21.8956L3.06895 23.2966ZM2.62659 21.4824C2.90385 21.4825 3.17277 21.5659 3.39924 21.7192L1.15733 25.0318C1.58973 25.3245 2.10078 25.4823 2.62573 25.4824L2.62659 21.4824ZM3.39924 21.7192C3.6254 21.8722 3.79791 22.0871 3.8988 22.3337L0.196533 23.8481C0.392206 24.3265 0.725221 24.7394 1.15733 25.0318L3.39924 21.7192ZM3.8988 22.3337C3.9996 22.5802 4.0256 22.8499 3.97454 23.11L0.0495108 22.3392C-0.0498593 22.8452 0.00094986 23.3699 0.196533 23.8481L3.8988 22.3337ZM3.97454 23.11C3.92346 23.3701 3.79675 23.6124 3.60661 23.805L0.76013 20.9947C0.39487 21.3647 0.148905 21.833 0.0495108 22.3392L3.97454 23.11ZM3.6064 23.8052L12.9107 14.3839L10.0646 11.5732L0.760342 20.9945L3.6064 23.8052ZM12.9107 11.5732L3.6064 2.15183L0.760342 4.96251L10.0646 14.3839L12.9107 11.5732ZM3.6306 2.17676C3.87784 2.43597 4.01052 2.77804 4.00751 3.12825L0.00765967 3.09393C0.0018003 3.7767 0.260734 4.43916 0.736142 4.93758L3.6306 2.17676ZM4.00751 3.12825C4.00451 3.47848 3.86595 3.81842 3.61403 4.07351L0.767971 1.26283C0.283807 1.75308 0.0135192 2.41114 0.00765967 3.09393L4.00751 3.12825ZM3.61403 4.07351C3.3613 4.32942 3.01419 4.47913 2.64601 4.48237L2.61082 0.482523C1.91422 0.488653 1.25294 0.771755 0.767971 1.26283L3.61403 4.07351ZM2.64601 4.48237C2.27782 4.48561 1.92792 4.342 1.67057 4.09031L4.46734 1.23058C3.97374 0.747845 3.30744 0.476394 2.61082 0.482523L2.64601 4.48237ZM1.64597 4.06583L11.3936 13.9355L14.2396 11.1248L4.49194 1.25505L1.64597 4.06583ZM11.3934 13.9353C11.1387 13.6773 11 13.3327 11 12.9785H15C15 12.2881 14.7294 11.6209 14.2399 11.125L11.3934 13.9353ZM11 12.9785C11 12.6244 11.1387 12.2798 11.3934 12.0218L14.2399 14.832C14.7294 14.3362 15 13.669 15 12.9785H11ZM11.3936 12.0215L1.64597 21.8912L4.49194 24.702L14.2396 14.8323L11.3936 12.0215ZM1.64161 21.8956C1.76895 21.7659 1.92182 21.6617 2.09204 21.5902L3.63985 25.2786C3.96208 25.1434 4.25296 24.9455 4.49629 24.6976L1.64161 21.8956ZM2.09204 21.5902C2.26232 21.5188 2.44581 21.4819 2.63165 21.4824L2.62068 25.4824C2.97106 25.4834 3.31756 25.4139 3.63985 25.2786L2.09204 21.5902Z" fill="white" mask="url(#path-1-outside-1_22_987)"/>
</svg>
