<svg width="60" height="60" viewBox="0 0 60 60" fill="none" xmlns="http://www.w3.org/2000/svg">
<path d="M42.625 50.7C40.175 53.075 37.5 52.7 34.925 51.575C32.2 50.425 29.7 50.375 26.825 51.575C23.225 53.125 21.325 52.675 19.175 50.7C6.975 38.125 8.775 18.975 22.625 18.275C26 18.45 28.35 20.125 30.325 20.275C33.275 19.675 36.1 17.95 39.25 18.175C43.025 18.475 45.875 19.975 47.75 22.675C39.95 27.35 41.8 37.625 48.95 40.5C47.525 44.25 45.675 47.975 42.6 50.725L42.625 50.7ZM30.075 18.125C29.7 12.55 34.225 7.95 39.425 7.5C40.15 13.95 33.575 18.75 30.075 18.125Z" fill="#FDFDFD"/>
</svg>
