<svg width="31" height="31" viewBox="0 0 31 31" fill="none" xmlns="http://www.w3.org/2000/svg">
<path d="M6.25335 26.2557C5.56585 26.255 4.97732 26.0099 4.48777 25.5203C3.99904 25.0299 3.75499 24.4409 3.75561 23.7534L3.77142 6.25342C3.77204 5.56592 4.01716 4.97739 4.50677 4.48783C4.99721 3.99911 5.58618 3.75506 6.27368 3.75568L23.7737 3.77149C24.4612 3.77211 25.0497 4.01722 25.5393 4.50683C26.028 4.99727 26.272 5.58625 26.2714 6.27375L26.2556 23.7737C26.255 24.4612 26.0099 25.0498 25.5203 25.5393C25.0298 26.028 24.4408 26.2721 23.7533 26.2715L6.25335 26.2557ZM6.25561 23.7557L23.7556 23.7715L23.7714 6.27149L6.27142 6.25568L6.25561 23.7557Z" fill="black"/>
</svg>
