<svg width="31" height="31" viewBox="0 0 31 31" fill="none" xmlns="http://www.w3.org/2000/svg">
<path d="M6.25338 26.2557C5.56588 26.255 4.97735 26.0099 4.4878 25.5203C3.99907 25.0299 3.75502 24.4409 3.75564 23.7534L3.77145 6.25342C3.77207 5.56592 4.01719 4.97739 4.5068 4.48783C4.99724 3.99911 5.58621 3.75506 6.27371 3.75568L23.7737 3.77149C24.4612 3.77211 25.0497 4.01722 25.5393 4.50683C26.028 4.99727 26.2721 5.58625 26.2714 6.27375L26.2556 23.7737C26.255 24.4612 26.0099 25.0498 25.5203 25.5393C25.0298 26.028 24.4409 26.2721 23.7534 26.2715L6.25338 26.2557ZM6.25564 23.7557L23.7556 23.7715L23.7714 6.27149L6.27145 6.25568L6.25564 23.7557Z" fill="black"/>
</svg>
