<svg width="15" height="26" viewBox="0 0 15 26" fill="none" xmlns="http://www.w3.org/2000/svg">
<mask id="path-1-outside-1_22_1251" maskUnits="userSpaceOnUse" x="0" y="0.820801" width="15" height="25" fill="black">
<rect fill="white" y="0.820801" width="15" height="25"/>
<path d="M2.62616 23.8208C2.50231 23.8208 2.38125 23.7836 2.27828 23.7139C2.17531 23.6442 2.09506 23.5452 2.04767 23.4293C2.00028 23.3134 1.98787 23.1859 2.01203 23.0629C2.03618 22.9399 2.09581 22.8269 2.18337 22.7383L11.4876 13.3169L2.18337 3.89555C2.06929 3.77594 2.00616 3.61575 2.00759 3.44947C2.00901 3.28319 2.07488 3.12413 2.191 3.00655C2.30712 2.88897 2.4642 2.82227 2.62842 2.82082C2.79263 2.81938 2.95083 2.8833 3.06895 2.99882L12.8166 12.8685C12.934 12.9875 13 13.1487 13 13.3169C13 13.4851 12.934 13.6463 12.8166 13.7653L3.06895 23.635C3.01096 23.6941 2.94195 23.7409 2.86595 23.7728C2.78994 23.8047 2.70844 23.821 2.62616 23.8208Z"/>
</mask>
<path d="M2.62616 23.8208C2.50231 23.8208 2.38125 23.7836 2.27828 23.7139C2.17531 23.6442 2.09506 23.5452 2.04767 23.4293C2.00028 23.3134 1.98787 23.1859 2.01203 23.0629C2.03618 22.9399 2.09581 22.8269 2.18337 22.7383L11.4876 13.3169L2.18337 3.89555C2.06929 3.77594 2.00616 3.61575 2.00759 3.44947C2.00901 3.28319 2.07488 3.12413 2.191 3.00655C2.30712 2.88897 2.4642 2.82227 2.62842 2.82082C2.79263 2.81938 2.95083 2.8833 3.06895 2.99882L12.8166 12.8685C12.934 12.9875 13 13.1487 13 13.3169C13 13.4851 12.934 13.6463 12.8166 13.7653L3.06895 23.635C3.01096 23.6941 2.94195 23.7409 2.86595 23.7728C2.78994 23.8047 2.70844 23.821 2.62616 23.8208Z" fill="black"/>
<path d="M2.62616 23.8208L2.63165 21.8208H2.62659L2.62616 23.8208ZM2.18337 22.7383L0.760342 21.3329L0.76013 21.3331L2.18337 22.7383ZM11.4876 13.3169L12.9107 14.7222L14.2985 13.3169L12.9107 11.9116L11.4876 13.3169ZM2.18337 3.89555L0.736142 5.27596L0.748134 5.28853L0.760342 5.30089L2.18337 3.89555ZM3.06895 2.99882L4.49194 1.59343L4.47975 1.58109L4.46734 1.56896L3.06895 2.99882ZM12.8166 12.8685L14.2399 11.4634L14.2396 11.4632L12.8166 12.8685ZM12.8166 13.7653L14.2396 15.1707L14.2399 15.1704L12.8166 13.7653ZM3.06895 23.635L1.64596 22.2296L1.64161 22.234L3.06895 23.635ZM2.62659 21.8208C2.90385 21.8209 3.17277 21.9043 3.39924 22.0575L1.15733 25.3702C1.58973 25.6629 2.10078 25.8207 2.62573 25.8208L2.62659 21.8208ZM3.39924 22.0575C3.6254 22.2106 3.79791 22.4255 3.8988 22.6721L0.196533 24.1865C0.392206 24.6648 0.725221 25.0778 1.15733 25.3702L3.39924 22.0575ZM3.8988 22.6721C3.9996 22.9186 4.0256 23.1883 3.97454 23.4483L0.0495108 22.6775C-0.0498593 23.1836 0.00094986 23.7083 0.196533 24.1865L3.8988 22.6721ZM3.97454 23.4483C3.92346 23.7085 3.79675 23.9508 3.60661 24.1434L0.76013 21.3331C0.39487 21.7031 0.148905 22.1714 0.0495108 22.6775L3.97454 23.4483ZM3.6064 24.1436L12.9107 14.7222L10.0646 11.9116L0.760342 21.3329L3.6064 24.1436ZM12.9107 11.9116L3.6064 2.49021L0.760342 5.30089L10.0646 14.7222L12.9107 11.9116ZM3.6306 2.51514C3.87784 2.77435 4.01052 3.11642 4.00751 3.46663L0.00765967 3.43231C0.0018003 4.11508 0.260734 4.77754 0.736142 5.27596L3.6306 2.51514ZM4.00751 3.46663C4.00451 3.81686 3.86595 4.1568 3.61403 4.41189L0.767971 1.6012C0.283807 2.09146 0.0135192 2.74952 0.00765967 3.43231L4.00751 3.46663ZM3.61403 4.41189C3.3613 4.6678 3.01419 4.81751 2.64601 4.82075L2.61082 0.820902C1.91422 0.827032 1.25294 1.11013 0.767971 1.6012L3.61403 4.41189ZM2.64601 4.82075C2.27782 4.82399 1.92792 4.68038 1.67057 4.42869L4.46734 1.56896C3.97374 1.08622 3.30744 0.814773 2.61082 0.820902L2.64601 4.82075ZM1.64597 4.40421L11.3936 14.2739L14.2396 11.4632L4.49194 1.59343L1.64597 4.40421ZM11.3934 14.2737C11.1387 14.0157 11 13.6711 11 13.3169H15C15 12.6264 14.7294 11.9593 14.2399 11.4634L11.3934 14.2737ZM11 13.3169C11 12.9628 11.1387 12.6181 11.3934 12.3601L14.2399 15.1704C14.7294 14.6745 15 14.0074 15 13.3169H11ZM11.3936 12.3599L1.64597 22.2296L4.49194 25.0404L14.2396 15.1707L11.3936 12.3599ZM1.64161 22.234C1.76895 22.1043 1.92182 22.0001 2.09204 21.9286L3.63985 25.617C3.96208 25.4818 4.25296 25.2839 4.49629 25.0359L1.64161 22.234ZM2.09204 21.9286C2.26232 21.8572 2.44581 21.8203 2.63165 21.8208L2.62068 25.8208C2.97106 25.8218 3.31756 25.7523 3.63985 25.617L2.09204 21.9286Z" fill="black" mask="url(#path-1-outside-1_22_1251)"/>
</svg>
