<svg width="15" height="26" viewBox="0 0 15 26" fill="none" xmlns="http://www.w3.org/2000/svg">
<mask id="path-1-outside-1_22_1119" maskUnits="userSpaceOnUse" x="0" y="0.866943" width="15" height="25" fill="black">
<rect fill="white" y="0.866943" width="15" height="25"/>
<path d="M2.62616 23.8669C2.50231 23.8669 2.38125 23.8297 2.27828 23.76C2.17531 23.6903 2.09506 23.5913 2.04767 23.4754C2.00028 23.3596 1.98787 23.2321 2.01203 23.1091C2.03618 22.9861 2.09581 22.8731 2.18337 22.7844L11.4876 13.363L2.18337 3.94169C2.06929 3.82209 2.00616 3.66189 2.00759 3.49561C2.00901 3.32933 2.07488 3.17027 2.191 3.05269C2.30712 2.93511 2.4642 2.86841 2.62842 2.86697C2.79263 2.86552 2.95083 2.92944 3.06895 3.04496L12.8166 12.9147C12.934 13.0336 13 13.1949 13 13.363C13 13.5312 12.934 13.6925 12.8166 13.8114L3.06895 23.6811C3.01096 23.7402 2.94195 23.7871 2.86595 23.819C2.78994 23.8509 2.70844 23.8672 2.62616 23.8669Z"/>
</mask>
<path d="M2.62616 23.8669C2.50231 23.8669 2.38125 23.8297 2.27828 23.76C2.17531 23.6903 2.09506 23.5913 2.04767 23.4754C2.00028 23.3596 1.98787 23.2321 2.01203 23.1091C2.03618 22.9861 2.09581 22.8731 2.18337 22.7844L11.4876 13.363L2.18337 3.94169C2.06929 3.82209 2.00616 3.66189 2.00759 3.49561C2.00901 3.32933 2.07488 3.17027 2.191 3.05269C2.30712 2.93511 2.4642 2.86841 2.62842 2.86697C2.79263 2.86552 2.95083 2.92944 3.06895 3.04496L12.8166 12.9147C12.934 13.0336 13 13.1949 13 13.363C13 13.5312 12.934 13.6925 12.8166 13.8114L3.06895 23.6811C3.01096 23.7402 2.94195 23.7871 2.86595 23.819C2.78994 23.8509 2.70844 23.8672 2.62616 23.8669Z" fill="white"/>
<path d="M2.62616 23.8669L2.63165 21.8669H2.62659L2.62616 23.8669ZM2.18337 22.7844L0.760342 21.3791L0.76013 21.3793L2.18337 22.7844ZM11.4876 13.363L12.9107 14.7684L14.2985 13.363L12.9107 11.9577L11.4876 13.363ZM2.18337 3.94169L0.736142 5.3221L0.748134 5.33467L0.760342 5.34704L2.18337 3.94169ZM3.06895 3.04496L4.49194 1.63958L4.47975 1.62723L4.46734 1.6151L3.06895 3.04496ZM12.8166 12.9147L14.2399 11.5096L14.2396 11.5093L12.8166 12.9147ZM12.8166 13.8114L14.2396 15.2168L14.2399 15.2165L12.8166 13.8114ZM3.06895 23.6811L1.64596 22.2757L1.64161 22.2802L3.06895 23.6811ZM2.62659 21.8669C2.90385 21.867 3.17277 21.9504 3.39924 22.1037L1.15733 25.4164C1.58973 25.709 2.10078 25.8668 2.62573 25.8669L2.62659 21.8669ZM3.39924 22.1037C3.6254 22.2567 3.79791 22.4716 3.8988 22.7183L0.196533 24.2326C0.392206 24.711 0.725221 25.1239 1.15733 25.4164L3.39924 22.1037ZM3.8988 22.7183C3.9996 22.9647 4.0256 23.2345 3.97454 23.4945L0.0495108 22.7237C-0.0498593 23.2297 0.00094986 23.7544 0.196533 24.2326L3.8988 22.7183ZM3.97454 23.4945C3.92346 23.7546 3.79675 23.9969 3.60661 24.1895L0.76013 21.3793C0.39487 21.7492 0.148905 22.2175 0.0495108 22.7237L3.97454 23.4945ZM3.6064 24.1897L12.9107 14.7684L10.0646 11.9577L0.760342 21.3791L3.6064 24.1897ZM12.9107 11.9577L3.6064 2.53635L0.760342 5.34704L10.0646 14.7684L12.9107 11.9577ZM3.6306 2.56128C3.87784 2.82049 4.01052 3.16256 4.00751 3.51277L0.00765967 3.47845C0.0018003 4.16122 0.260734 4.82368 0.736142 5.3221L3.6306 2.56128ZM4.00751 3.51277C4.00451 3.863 3.86595 4.20294 3.61403 4.45803L0.767971 1.64735C0.283807 2.1376 0.0135192 2.79566 0.00765967 3.47845L4.00751 3.51277ZM3.61403 4.45803C3.3613 4.71394 3.01419 4.86365 2.64601 4.86689L2.61082 0.867045C1.91422 0.873174 1.25294 1.15628 0.767971 1.64735L3.61403 4.45803ZM2.64601 4.86689C2.27782 4.87013 1.92792 4.72652 1.67057 4.47483L4.46734 1.6151C3.97374 1.13237 3.30744 0.860915 2.61082 0.867045L2.64601 4.86689ZM1.64597 4.45035L11.3936 14.3201L14.2396 11.5093L4.49194 1.63958L1.64597 4.45035ZM11.3934 14.3198C11.1387 14.0618 11 13.7172 11 13.363H15C15 12.6726 14.7294 12.0054 14.2399 11.5096L11.3934 14.3198ZM11 13.363C11 13.0089 11.1387 12.6643 11.3934 12.4063L14.2399 15.2165C14.7294 14.7207 15 14.0535 15 13.363H11ZM11.3936 12.406L1.64597 22.2757L4.49194 25.0865L14.2396 15.2168L11.3936 12.406ZM1.64161 22.2802C1.76895 22.1504 1.92182 22.0462 2.09204 21.9748L3.63985 25.6632C3.96208 25.5279 4.25296 25.33 4.49629 25.0821L1.64161 22.2802ZM2.09204 21.9748C2.26232 21.9033 2.44581 21.8664 2.63165 21.8669L2.62068 25.8669C2.97106 25.8679 3.31756 25.7984 3.63985 25.6632L2.09204 21.9748Z" fill="white" mask="url(#path-1-outside-1_22_1119)"/>
</svg>
