<svg width="81" height="69" viewBox="0 0 81 69" fill="none" xmlns="http://www.w3.org/2000/svg">
<g filter="url(#filter0_d_1_2221)">
<path d="M56.5144 33.334V52.8419C56.5144 53.5463 56.2604 54.1559 55.7524 54.6707C55.2444 55.1855 54.6429 55.4429 53.9477 55.4429H38.5476V39.8366H28.2809V55.4429H12.8808C12.1857 55.4429 11.5841 55.1855 11.0762 54.6707C10.5682 54.1559 10.3142 53.5463 10.3142 52.8419V33.334C10.3142 33.3069 10.3209 33.2663 10.3342 33.2121C10.3476 33.1579 10.3543 33.1173 10.3543 33.0902L33.4143 13.8262L56.4743 33.0902C56.501 33.1444 56.5144 33.2256 56.5144 33.334ZM65.4577 30.5298L62.9712 33.5372C62.7573 33.7811 62.4766 33.9301 62.129 33.9843H62.0087C61.6611 33.9843 61.3804 33.8894 61.1665 33.6998L33.4143 10.2497L5.66206 33.6998C5.34123 33.9165 5.02039 34.0114 4.69956 33.9843C4.35199 33.9301 4.07126 33.7811 3.85737 33.5372L1.3709 30.5298C1.15701 30.2588 1.06343 29.9405 1.09016 29.5747C1.1169 29.2089 1.26395 28.9177 1.53131 28.7009L30.3663 4.35672C31.2219 3.65227 32.2379 3.30005 33.4143 3.30005C34.5907 3.30005 35.6067 3.65227 36.4622 4.35672L46.2477 12.6476V4.7225C46.2477 4.34318 46.368 4.03159 46.6086 3.78775C46.8492 3.5439 47.1567 3.42197 47.531 3.42197H55.2311C55.6054 3.42197 55.9128 3.5439 56.1535 3.78775C56.3941 4.03159 56.5144 4.34318 56.5144 4.7225V21.3042L65.2973 28.7009C65.5646 28.9177 65.7117 29.2089 65.7384 29.5747C65.7651 29.9405 65.6716 30.2588 65.4577 30.5298Z" fill="#F5F5F5"/>
<path d="M53.9477 54.9429H39.0476V39.8366V39.3366H38.5476H28.2809H27.7809V39.8366V54.9429H12.8808C12.3254 54.9429 11.8503 54.7434 11.432 54.3195C11.0136 53.8955 10.8142 53.411 10.8142 52.8419V33.3575L33.4143 14.4777L56.0144 33.3575V52.8419C56.0144 53.411 55.8149 53.8955 55.3965 54.3195C54.9782 54.7434 54.5032 54.9429 53.9477 54.9429ZM55.7976 4.13894L56.1535 3.78775L55.7976 4.13894C55.9356 4.27878 56.0144 4.45921 56.0144 4.7225V21.3042V21.5368L56.1923 21.6866L64.9752 29.0833L64.9751 29.0834L64.9824 29.0893C65.1349 29.2129 65.2223 29.3729 65.2397 29.6111C65.2578 29.8588 65.1975 30.0505 65.0684 30.2159L62.591 33.2124C62.468 33.3505 62.3083 33.4433 62.087 33.4843H62.0087C61.7557 33.4843 61.6019 33.4176 61.4982 33.3257L61.4983 33.3256L61.4892 33.3179L33.737 9.86781L33.4143 9.59512L33.0916 9.86781L5.36119 33.2994C5.1315 33.4497 4.93423 33.4982 4.75845 33.4873C4.52834 33.448 4.3636 33.354 4.23755 33.2124L1.76023 30.216C1.63105 30.0505 1.57073 29.8588 1.58883 29.6111C1.60625 29.3729 1.69366 29.2129 1.84619 29.0893L1.84625 29.0894L1.85386 29.0829L30.6864 4.74085C31.4462 4.11609 32.3472 3.80005 33.4143 3.80005C34.4812 3.80005 35.382 4.11599 36.1418 4.74055C36.1426 4.74127 36.1435 4.74199 36.1444 4.74272L45.9245 13.029L46.7477 13.7265V12.6476V4.7225C46.7477 4.45921 46.8265 4.27878 46.9645 4.13894C47.102 3.99961 47.2768 3.92197 47.531 3.92197H55.2311C55.4853 3.92197 55.6601 3.99961 55.7976 4.13894Z" stroke="black"/>
</g>
<defs>
<filter id="filter0_d_1_2221" x="0.0857086" y="0.300049" width="80.6572" height="68.1428" filterUnits="userSpaceOnUse" color-interpolation-filters="sRGB">
<feFlood flood-opacity="0" result="BackgroundImageFix"/>
<feColorMatrix in="SourceAlpha" type="matrix" values="0 0 0 0 0 0 0 0 0 0 0 0 0 0 0 0 0 0 127 0" result="hardAlpha"/>
<feOffset dx="7" dy="5"/>
<feGaussianBlur stdDeviation="4"/>
<feComposite in2="hardAlpha" operator="out"/>
<feColorMatrix type="matrix" values="0 0 0 0 0 0 0 0 0 0 0 0 0 0 0 0 0 0 0.7 0"/>
<feBlend mode="normal" in2="BackgroundImageFix" result="effect1_dropShadow_1_2221"/>
<feBlend mode="normal" in="SourceGraphic" in2="effect1_dropShadow_1_2221" result="shape"/>
</filter>
</defs>
</svg>
