<svg width="15" height="26" viewBox="0 0 15 26" fill="none" xmlns="http://www.w3.org/2000/svg">
<mask id="path-1-outside-1_22_1284" maskUnits="userSpaceOnUse" x="0" y="0.772278" width="15" height="25" fill="black">
<rect fill="white" y="0.772278" width="15" height="25"/>
<path d="M2.62616 23.7723C2.50231 23.7722 2.38125 23.735 2.27828 23.6654C2.17531 23.5957 2.09506 23.4966 2.04767 23.3808C2.00028 23.2649 1.98787 23.1374 2.01203 23.0144C2.03618 22.8914 2.09581 22.7784 2.18337 22.6897L11.4876 13.2684L2.18337 3.84703C2.06929 3.72742 2.00616 3.56722 2.00759 3.40095C2.00901 3.23467 2.07488 3.07561 2.191 2.95802C2.30712 2.84044 2.4642 2.77375 2.62842 2.7723C2.79263 2.77086 2.95083 2.83478 3.06895 2.9503L12.8166 12.82C12.934 12.9389 13 13.1002 13 13.2684C13 13.4365 12.934 13.5978 12.8166 13.7167L3.06895 23.5865C3.01096 23.6456 2.94195 23.6924 2.86595 23.7243C2.78994 23.7562 2.70844 23.7725 2.62616 23.7723Z"/>
</mask>
<path d="M2.62616 23.7723C2.50231 23.7722 2.38125 23.735 2.27828 23.6654C2.17531 23.5957 2.09506 23.4966 2.04767 23.3808C2.00028 23.2649 1.98787 23.1374 2.01203 23.0144C2.03618 22.8914 2.09581 22.7784 2.18337 22.6897L11.4876 13.2684L2.18337 3.84703C2.06929 3.72742 2.00616 3.56722 2.00759 3.40095C2.00901 3.23467 2.07488 3.07561 2.191 2.95802C2.30712 2.84044 2.4642 2.77375 2.62842 2.7723C2.79263 2.77086 2.95083 2.83478 3.06895 2.9503L12.8166 12.82C12.934 12.9389 13 13.1002 13 13.2684C13 13.4365 12.934 13.5978 12.8166 13.7167L3.06895 23.5865C3.01096 23.6456 2.94195 23.6924 2.86595 23.7243C2.78994 23.7562 2.70844 23.7725 2.62616 23.7723Z" fill="black"/>
<path d="M2.62616 23.7723L2.63165 21.7723H2.62659L2.62616 23.7723ZM2.18337 22.6897L0.760342 21.2844L0.76013 21.2846L2.18337 22.6897ZM11.4876 13.2684L12.9107 14.6737L14.2985 13.2684L12.9107 11.863L11.4876 13.2684ZM2.18337 3.84703L0.736142 5.22744L0.748134 5.24001L0.760342 5.25237L2.18337 3.84703ZM3.06895 2.9503L4.49194 1.54491L4.47975 1.53257L4.46734 1.52044L3.06895 2.9503ZM12.8166 12.82L14.2399 11.4149L14.2396 11.4146L12.8166 12.82ZM12.8166 13.7167L14.2396 15.1221L14.2399 15.1219L12.8166 13.7167ZM3.06895 23.5865L1.64596 22.1811L1.64161 22.1855L3.06895 23.5865ZM2.62659 21.7723C2.90385 21.7723 3.17277 21.8558 3.39924 22.009L1.15733 25.3217C1.58973 25.6143 2.10078 25.7722 2.62573 25.7723L2.62659 21.7723ZM3.39924 22.009C3.6254 22.1621 3.79791 22.3769 3.8988 22.6236L0.196533 24.1379C0.392206 24.6163 0.725221 25.0293 1.15733 25.3217L3.39924 22.009ZM3.8988 22.6236C3.9996 22.87 4.0256 23.1398 3.97454 23.3998L0.0495108 22.629C-0.0498593 23.135 0.00094986 23.6598 0.196533 24.1379L3.8988 22.6236ZM3.97454 23.3998C3.92346 23.6599 3.79675 23.9023 3.60661 24.0949L0.76013 21.2846C0.39487 21.6546 0.148905 22.1229 0.0495108 22.629L3.97454 23.3998ZM3.6064 24.0951L12.9107 14.6737L10.0646 11.863L0.760342 21.2844L3.6064 24.0951ZM12.9107 11.863L3.6064 2.44168L0.760342 5.25237L10.0646 14.6737L12.9107 11.863ZM3.6306 2.46662C3.87784 2.72583 4.01052 3.06789 4.00751 3.41811L0.00765967 3.38378C0.0018003 4.06656 0.260734 4.72901 0.736142 5.22744L3.6306 2.46662ZM4.00751 3.41811C4.00451 3.76834 3.86595 4.10827 3.61403 4.36337L0.767971 1.55268C0.283807 2.04294 0.0135192 2.70099 0.00765967 3.38378L4.00751 3.41811ZM3.61403 4.36337C3.3613 4.61927 3.01419 4.76898 2.64601 4.77222L2.61082 0.772379C1.91422 0.778509 1.25294 1.06161 0.767971 1.55268L3.61403 4.36337ZM2.64601 4.77222C2.27782 4.77546 1.92792 4.63186 1.67057 4.38016L4.46734 1.52044C3.97374 1.0377 3.30744 0.76625 2.61082 0.772379L2.64601 4.77222ZM1.64597 4.35569L11.3936 14.2254L14.2396 11.4146L4.49194 1.54491L1.64597 4.35569ZM11.3934 14.2251C11.1387 13.9671 11 13.6225 11 13.2684H15C15 12.5779 14.7294 11.9107 14.2399 11.4149L11.3934 14.2251ZM11 13.2684C11 12.9142 11.1387 12.5696 11.3934 12.3116L14.2399 15.1219C14.7294 14.626 15 13.9588 15 13.2684H11ZM11.3936 12.3114L1.64597 22.1811L4.49194 24.9918L14.2396 15.1221L11.3936 12.3114ZM1.64161 22.1855C1.76895 22.0558 1.92182 21.9515 2.09204 21.8801L3.63985 25.5685C3.96208 25.4333 4.25296 25.2353 4.49629 24.9874L1.64161 22.1855ZM2.09204 21.8801C2.26232 21.8086 2.44581 21.7718 2.63165 21.7723L2.62068 25.7723C2.97106 25.7732 3.31756 25.7037 3.63985 25.5685L2.09204 21.8801Z" fill="black" mask="url(#path-1-outside-1_22_1284)"/>
</svg>
