<svg width="15" height="26" viewBox="0 0 15 26" fill="none" xmlns="http://www.w3.org/2000/svg">
<mask id="path-1-outside-1_22_954" maskUnits="userSpaceOnUse" x="0" y="0.383545" width="15" height="25" fill="black">
<rect fill="white" y="0.383545" width="15" height="25"/>
<path d="M2.62616 23.3835C2.50231 23.3835 2.38125 23.3463 2.27828 23.2766C2.17531 23.2069 2.09506 23.1079 2.04767 22.992C2.00028 22.8762 1.98787 22.7487 2.01203 22.6257C2.03618 22.5027 2.09581 22.3897 2.18337 22.301L11.4876 12.8796L2.18337 3.45829C2.06929 3.33869 2.00616 3.17849 2.00759 3.01221C2.00901 2.84593 2.07488 2.68687 2.191 2.56929C2.30712 2.45171 2.4642 2.38501 2.62842 2.38357C2.79263 2.38212 2.95083 2.44605 3.06895 2.56157L12.8166 12.4313C12.934 12.5502 13 12.7115 13 12.8796C13 13.0478 12.934 13.2091 12.8166 13.328L3.06895 23.1977C3.01096 23.2568 2.94195 23.3037 2.86595 23.3356C2.78994 23.3675 2.70844 23.3838 2.62616 23.3835Z"/>
</mask>
<path d="M2.62616 23.3835C2.50231 23.3835 2.38125 23.3463 2.27828 23.2766C2.17531 23.2069 2.09506 23.1079 2.04767 22.992C2.00028 22.8762 1.98787 22.7487 2.01203 22.6257C2.03618 22.5027 2.09581 22.3897 2.18337 22.301L11.4876 12.8796L2.18337 3.45829C2.06929 3.33869 2.00616 3.17849 2.00759 3.01221C2.00901 2.84593 2.07488 2.68687 2.191 2.56929C2.30712 2.45171 2.4642 2.38501 2.62842 2.38357C2.79263 2.38212 2.95083 2.44605 3.06895 2.56157L12.8166 12.4313C12.934 12.5502 13 12.7115 13 12.8796C13 13.0478 12.934 13.2091 12.8166 13.328L3.06895 23.1977C3.01096 23.2568 2.94195 23.3037 2.86595 23.3356C2.78994 23.3675 2.70844 23.3838 2.62616 23.3835Z" fill="black"/>
<path d="M2.62616 23.3835L2.63165 21.3835H2.62659L2.62616 23.3835ZM2.18337 22.301L0.760342 20.8957L0.76013 20.8959L2.18337 22.301ZM11.4876 12.8796L12.9107 14.285L14.2985 12.8796L12.9107 11.4743L11.4876 12.8796ZM2.18337 3.45829L0.736142 4.8387L0.748134 4.85127L0.760342 4.86364L2.18337 3.45829ZM3.06895 2.56157L4.49194 1.15618L4.47975 1.14383L4.46734 1.1317L3.06895 2.56157ZM12.8166 12.4313L14.2399 11.0262L14.2396 11.0259L12.8166 12.4313ZM12.8166 13.328L14.2396 14.7334L14.2399 14.7331L12.8166 13.328ZM3.06895 23.1977L1.64596 21.7923L1.64161 21.7968L3.06895 23.1977ZM2.62659 21.3835C2.90385 21.3836 3.17277 21.467 3.39924 21.6203L1.15733 24.933C1.58973 25.2256 2.10078 25.3834 2.62573 25.3835L2.62659 21.3835ZM3.39924 21.6203C3.6254 21.7733 3.79791 21.9882 3.8988 22.2349L0.196533 23.7492C0.392206 24.2276 0.725221 24.6405 1.15733 24.933L3.39924 21.6203ZM3.8988 22.2349C3.9996 22.4813 4.0256 22.7511 3.97454 23.0111L0.0495108 22.2403C-0.0498593 22.7463 0.00094986 23.271 0.196533 23.7492L3.8988 22.2349ZM3.97454 23.0111C3.92346 23.2712 3.79675 23.5135 3.60661 23.7061L0.76013 20.8959C0.39487 21.2658 0.148905 21.7341 0.0495108 22.2403L3.97454 23.0111ZM3.6064 23.7063L12.9107 14.285L10.0646 11.4743L0.760342 20.8957L3.6064 23.7063ZM12.9107 11.4743L3.6064 2.05295L0.760342 4.86364L10.0646 14.285L12.9107 11.4743ZM3.6306 2.07789C3.87784 2.33709 4.01052 2.67916 4.00751 3.02938L0.00765967 2.99505C0.0018003 3.67782 0.260734 4.34028 0.736142 4.8387L3.6306 2.07789ZM4.00751 3.02938C4.00451 3.37961 3.86595 3.71954 3.61403 3.97463L0.767971 1.16395C0.283807 1.65421 0.0135192 2.31226 0.00765967 2.99505L4.00751 3.02938ZM3.61403 3.97463C3.3613 4.23054 3.01419 4.38025 2.64601 4.38349L2.61082 0.383646C1.91422 0.389776 1.25294 0.672879 0.767971 1.16395L3.61403 3.97463ZM2.64601 4.38349C2.27782 4.38673 1.92792 4.24312 1.67057 3.99143L4.46734 1.1317C3.97374 0.648968 3.30744 0.377517 2.61082 0.383646L2.64601 4.38349ZM1.64597 3.96695L11.3936 13.8367L14.2396 11.0259L4.49194 1.15618L1.64597 3.96695ZM11.3934 13.8364C11.1387 13.5784 11 13.2338 11 12.8796H15C15 12.1892 14.7294 11.522 14.2399 11.0262L11.3934 13.8364ZM11 12.8796C11 12.5255 11.1387 12.1809 11.3934 11.9229L14.2399 14.7331C14.7294 14.2373 15 13.5701 15 12.8796H11ZM11.3936 11.9226L1.64597 21.7923L4.49194 24.6031L14.2396 14.7334L11.3936 11.9226ZM1.64161 21.7968C1.76895 21.667 1.92182 21.5628 2.09204 21.4914L3.63985 25.1798C3.96208 25.0445 4.25296 24.8466 4.49629 24.5987L1.64161 21.7968ZM2.09204 21.4914C2.26232 21.4199 2.44581 21.383 2.63165 21.3835L2.62068 25.3835C2.97106 25.3845 3.31756 25.315 3.63985 25.1798L2.09204 21.4914Z" fill="black" mask="url(#path-1-outside-1_22_954)"/>
</svg>
