<svg width="89" height="89" viewBox="0 0 89 89" fill="none" xmlns="http://www.w3.org/2000/svg">
<g filter="url(#filter0_d_231_2724)">
<circle cx="40.5" cy="40.5" r="40.5" fill="black"/>
</g>
<path d="M53.6249 61.7C51.1749 64.075 48.4999 63.7 45.9249 62.575C43.1999 61.425 40.6999 61.375 37.8249 62.575C34.2249 64.125 32.3249 63.675 30.1749 61.7C17.9749 49.125 19.7749 29.975 33.6249 29.275C36.9999 29.45 39.3499 31.125 41.3249 31.275C44.2749 30.675 47.0999 28.95 50.2499 29.175C54.0249 29.475 56.8749 30.975 58.7499 33.675C50.9499 38.35 52.7999 48.625 59.9499 51.5C58.5249 55.25 56.6749 58.975 53.5999 61.725L53.6249 61.7ZM41.0749 29.125C40.6999 23.55 45.2249 18.95 50.4249 18.5C51.1499 24.95 44.5749 29.75 41.0749 29.125Z" fill="#FDFDFD"/>
<defs>
<filter id="filter0_d_231_2724" x="0" y="0" width="89" height="89" filterUnits="userSpaceOnUse" color-interpolation-filters="sRGB">
<feFlood flood-opacity="0" result="BackgroundImageFix"/>
<feColorMatrix in="SourceAlpha" type="matrix" values="0 0 0 0 0 0 0 0 0 0 0 0 0 0 0 0 0 0 127 0" result="hardAlpha"/>
<feOffset dx="4" dy="4"/>
<feGaussianBlur stdDeviation="2"/>
<feComposite in2="hardAlpha" operator="out"/>
<feColorMatrix type="matrix" values="0 0 0 0 0 0 0 0 0 0 0 0 0 0 0 0 0 0 0.1 0"/>
<feBlend mode="normal" in2="BackgroundImageFix" result="effect1_dropShadow_231_2724"/>
<feBlend mode="normal" in="SourceGraphic" in2="effect1_dropShadow_231_2724" result="shape"/>
</filter>
</defs>
</svg>
