<svg width="32" height="32" viewBox="0 0 32 32" fill="none" xmlns="http://www.w3.org/2000/svg">
<mask id="mask0_9_59" style="mask-type:alpha" maskUnits="userSpaceOnUse" x="0" y="0" width="32" height="32">
<path fill-rule="evenodd" clip-rule="evenodd" d="M19.5957 1.19398C17.3711 -0.499443 14.541 -0.293205 12.3965 1.19398C12.3965 1.19398 1.49414 8.7674 0.917969 9.45472C0.355469 9.95466 0 11.0357 0 12.0042V28.0009C0 30.2066 1.78711 32 4 32H27.9941C30.1992 32 31.9941 30.2129 31.9941 28.0009V11.9979C31.9941 11.0482 31.6367 10.0171 31.1055 9.49226C30.5312 8.77985 19.5957 1.19398 19.5957 1.19398ZM14.7969 4.39332C15.5039 3.86213 16.4902 3.86213 17.1973 4.39332L26.6699 11.4981L17.1973 18.5966C16.4902 19.1277 15.5039 19.1277 14.7969 18.5966L5.32422 11.4918L14.7969 4.39332ZM4 15.4972V27.9946H27.9941V15.4972L19.5977 21.7959C17.416 23.4143 14.498 23.4143 12.3984 21.7959L4 15.4972Z" fill="#6B6C7E"/>
</mask>
<g mask="url(#mask0_9_59)">
<rect width="32" height="32" fill="#6B6C7E"/>
</g>
</svg>
